<?xml version="1.0" encoding="UTF-8" standalone="no"?>
<!DOCTYPE svg PUBLIC "-//W3C//DTD SVG 1.1//EN" "http://www.w3.org/Graphics/SVG/1.1/DTD/svg11.dtd">
<svg width="100%" height="100%" viewBox="0 0 25 25" version="1.1" xmlns="http://www.w3.org/2000/svg" xmlns:xlink="http://www.w3.org/1999/xlink" xml:space="preserve" xmlns:serif="http://www.serif.com/" style="fill-rule:evenodd;clip-rule:evenodd;stroke-linejoin:round;stroke-miterlimit:1.41421;">
    <g id="Forma-1" serif:id="Forma 1" transform="matrix(0.913043,0,0,0.952381,2,1.54762)">
        <path d="M16.51,17.04C16.08,16.97 16.08,15.8 16.08,15.8C16.08,15.8 17.33,14.57 17.6,12.9C18.33,12.9 18.78,11.12 18.05,10.5C18.08,9.85 18.99,5.36 14.37,5.36C9.76,5.36 10.67,9.85 10.7,10.5C9.97,11.12 10.42,12.9 11.15,12.9C11.42,14.57 12.67,15.8 12.67,15.8C12.67,15.8 12.67,16.97 12.24,17.04C10.86,17.26 5.75,19.52 5.75,22L23,22C23,19.52 17.87,17.26 16.51,17.04ZM7.73,17.44C8.72,16.82 9.92,16.26 10.91,15.91C10.56,15.41 10.16,14.71 9.91,13.89C9.56,13.61 9.29,13.2 9.1,12.7C8.93,12.19 8.85,11.64 8.9,11.12C8.95,10.74 9.06,10.4 9.21,10.09C9.12,9.04 9.05,6.96 10.39,5.45C10.92,4.86 11.58,4.44 12.37,4.19C12.22,2.72 11.49,1 8.62,1C4.01,1 4.92,5.49 4.95,6.16C4.22,6.77 4.67,8.55 5.4,8.55C5.67,10.21 6.92,11.45 6.92,11.45C6.92,11.45 6.92,12.62 6.49,12.69C5.11,12.91 0,15.16 0,17.64L7.4,17.64C7.51,17.58 7.61,17.51 7.73,17.44Z" style="fill:rgb(91,23,122);fill-rule:nonzero;"/>
    </g>
</svg>
