<?xml version="1.0" encoding="UTF-8" standalone="no"?>
<!DOCTYPE svg PUBLIC "-//W3C//DTD SVG 1.1//EN" "http://www.w3.org/Graphics/SVG/1.1/DTD/svg11.dtd">
<svg width="100%" height="100%" viewBox="0 0 30 60" version="1.1" xmlns="http://www.w3.org/2000/svg" xmlns:xlink="http://www.w3.org/1999/xlink" xml:space="preserve" xmlns:serif="http://www.serif.com/" style="fill-rule:evenodd;clip-rule:evenodd;stroke-linejoin:round;stroke-miterlimit:1.41421;">
    <g id="Forma-1" serif:id="Forma 1" transform="matrix(1,0,0,1,-24.0471,-243.499)">
        <path d="M44.911,266.407L44.911,258.872C44.911,258.559 45.152,258.32 45.463,258.32C45.754,258.32 45.994,258.559 45.994,258.872L45.994,266.959C45.994,267.25 45.754,267.491 45.463,267.491L40.467,267.491C40.156,267.491 39.915,267.25 39.915,266.959L39.915,263.882L38.17,263.882L38.17,266.959C38.17,267.25 37.929,267.491 37.638,267.491L32.622,267.491C32.331,267.491 32.091,267.25 32.091,266.959L32.091,259.122C32.091,258.831 32.331,258.589 32.622,258.589C32.934,258.589 33.174,258.831 33.174,259.122L33.174,266.407L37.076,266.407L37.076,263.33C37.076,263.044 37.322,262.794 37.638,262.789L40.467,262.789C40.763,262.794 40.999,263.044 40.999,263.33L40.999,266.407L44.911,266.407ZM48.462,258.75L44.109,254.381L44.109,251.403C44.109,251.092 43.858,250.853 43.547,250.853C43.256,250.853 43.015,251.092 43.015,251.403L43.015,253.289L39.424,249.679C39.314,249.568 39.183,249.508 39.053,249.508C38.902,249.508 38.772,249.57 38.661,249.679L29.643,258.69C29.427,258.906 29.413,259.252 29.643,259.451C29.844,259.682 30.189,259.667 30.406,259.451L39.053,250.832L47.68,259.532C47.769,259.622 47.9,259.673 48.071,259.673C48.221,259.673 48.352,259.622 48.462,259.532C48.663,259.331 48.678,258.968 48.462,258.75Z" style="fill:rgb(131,131,131);"/>
    </g>
    <g id="Forma-11" serif:id="Forma 1" transform="matrix(1,0,0,1,-24.0471,-213.5)">
        <path d="M44.911,266.407L44.911,258.872C44.911,258.559 45.152,258.32 45.463,258.32C45.754,258.32 45.994,258.559 45.994,258.872L45.994,266.959C45.994,267.25 45.754,267.491 45.463,267.491L40.467,267.491C40.156,267.491 39.915,267.25 39.915,266.959L39.915,263.882L38.17,263.882L38.17,266.959C38.17,267.25 37.929,267.491 37.638,267.491L32.622,267.491C32.331,267.491 32.091,267.25 32.091,266.959L32.091,259.122C32.091,258.831 32.331,258.589 32.622,258.589C32.934,258.589 33.174,258.831 33.174,259.122L33.174,266.407L37.076,266.407L37.076,263.33C37.076,263.044 37.322,262.794 37.638,262.789L40.467,262.789C40.763,262.794 40.999,263.044 40.999,263.33L40.999,266.407L44.911,266.407ZM48.462,258.75L44.109,254.381L44.109,251.403C44.109,251.092 43.858,250.853 43.547,250.853C43.256,250.853 43.015,251.092 43.015,251.403L43.015,253.289L39.424,249.679C39.314,249.568 39.183,249.508 39.053,249.508C38.902,249.508 38.772,249.57 38.661,249.679L29.643,258.69C29.427,258.906 29.413,259.252 29.643,259.451C29.844,259.682 30.189,259.667 30.406,259.451L39.053,250.832L47.68,259.532C47.769,259.622 47.9,259.673 48.071,259.673C48.221,259.673 48.352,259.622 48.462,259.532C48.663,259.331 48.678,258.968 48.462,258.75Z" style="fill:rgb(92,24,114);"/>
    </g>
</svg>
