<?xml version="1.0" encoding="UTF-8" standalone="no"?>
<!DOCTYPE svg PUBLIC "-//W3C//DTD SVG 1.1//EN" "http://www.w3.org/Graphics/SVG/1.1/DTD/svg11.dtd">
<svg width="100%" height="100%" viewBox="0 0 25 25" version="1.1" xmlns="http://www.w3.org/2000/svg" xmlns:xlink="http://www.w3.org/1999/xlink" xml:space="preserve" xmlns:serif="http://www.serif.com/" style="fill-rule:evenodd;clip-rule:evenodd;stroke-linejoin:round;stroke-miterlimit:1.41421;">
    <g id="Forma-1" serif:id="Forma 1" transform="matrix(1,0,0,1,-1479,-705.499)">
        <path d="M1488.87,710.776C1489.02,709.496 1490.14,708.499 1491.5,708.499C1492.86,708.499 1493.98,709.496 1494.13,710.776L1497.18,710.776C1498.41,710.776 1499.42,711.749 1499.42,712.946L1499.42,713.058C1499.42,713.972 1498.83,714.755 1498,715.074L1498,725.328C1498,726.525 1497,727.499 1495.77,727.499L1487.23,727.499C1486,727.499 1485,726.525 1485,725.328L1485,715.074C1484.17,714.755 1483.58,713.972 1483.58,713.058L1483.58,712.946C1483.58,711.75 1484.59,710.776 1485.82,710.776L1488.87,710.776ZM1495.77,726.47C1496.41,726.469 1496.94,725.958 1496.94,725.328L1496.94,715.228L1486.06,715.228L1486.06,725.328C1486.06,725.958 1486.59,726.47 1487.23,726.47L1495.77,726.47ZM1488.66,725.153C1488.95,725.153 1489.19,724.923 1489.19,724.639L1489.19,718.843C1489.19,718.559 1488.95,718.328 1488.66,718.328C1488.36,718.328 1488.13,718.559 1488.13,718.843L1488.13,724.639C1488.13,724.923 1488.36,725.153 1488.66,725.153ZM1494.34,725.153C1494.64,725.153 1494.87,724.923 1494.87,724.639L1494.87,718.843C1494.87,718.559 1494.64,718.328 1494.34,718.328C1494.05,718.328 1493.81,718.559 1493.81,718.843L1493.81,724.639C1493.81,724.923 1494.05,725.153 1494.34,725.153ZM1491.5,725.153C1491.79,725.153 1492.03,724.923 1492.03,724.639L1492.03,718.843C1492.03,718.559 1491.79,718.328 1491.5,718.328C1491.21,718.328 1490.97,718.559 1490.97,718.843L1490.97,724.639C1490.97,724.923 1491.21,725.153 1491.5,725.153ZM1497.18,714.199C1497.83,714.199 1498.36,713.687 1498.36,713.058L1498.36,712.946C1498.36,712.317 1497.83,711.805 1497.18,711.805L1485.82,711.805C1485.17,711.805 1484.64,712.317 1484.64,712.946L1484.64,713.058C1484.64,713.687 1485.17,714.199 1485.82,714.199L1497.18,714.199ZM1493.06,710.776C1492.92,710.066 1492.27,709.529 1491.5,709.529C1490.73,709.529 1490.08,710.066 1489.94,710.776L1493.06,710.776Z" style="fill:rgb(148,148,148);"/>
    </g>
</svg>
