<?xml version="1.0" encoding="UTF-8" standalone="no"?>
<!DOCTYPE svg PUBLIC "-//W3C//DTD SVG 1.1//EN" "http://www.w3.org/Graphics/SVG/1.1/DTD/svg11.dtd">
<svg width="100%" height="100%" viewBox="0 0 25 25" version="1.1" xmlns="http://www.w3.org/2000/svg" xmlns:xlink="http://www.w3.org/1999/xlink" xml:space="preserve" xmlns:serif="http://www.serif.com/" style="fill-rule:evenodd;clip-rule:evenodd;stroke-linejoin:round;stroke-miterlimit:1.41421;">
    <g transform="matrix(0.0390625,0,0,0.0416684,4.091,-2.79582)">
        <g transform="matrix(1,0,0,1,-44.7272,108.618)">
            <path d="M282.208,19.67C278.56,16.662 273.728,15.414 269.056,16.278L13.056,64.278C5.472,65.686 0,72.278 0,79.99L0,431.99C0,439.67 5.472,446.294 13.056,447.702L269.056,495.702C270.016,495.894 271.04,495.99 272,495.99C275.68,495.99 279.328,494.71 282.208,492.31C285.888,489.27 288,484.726 288,479.99L288,31.99C288,27.222 285.888,22.71 282.208,19.67ZM256,460.694L32,418.71L32,93.27L256,51.286L256,460.694Z" style="fill:rgb(148,148,148);fill-rule:nonzero;"/>
        </g>
        <g transform="matrix(1,0,0,1,-44.7272,108.627)">
            <path d="M496,79.99L272,79.99C263.168,79.99 256,87.158 256,95.99C256,104.822 263.168,111.99 272,111.99L480,111.99L480,399.99L272,399.99C263.168,399.99 256,407.158 256,415.99C256,424.822 263.168,431.99 272,431.99L496,431.99C504.832,431.99 512,424.822 512,415.99L512,95.99C512,87.158 504.832,79.99 496,79.99Z" style="fill:rgb(148,148,148);fill-rule:nonzero;"/>
        </g>
        <g transform="matrix(1,0,0,1,-44.7272,108.618)">
            <path d="M432,143.99L272,143.99C263.168,143.99 256,151.158 256,159.99C256,168.822 263.168,175.99 272,175.99L432,175.99C440.832,175.99 448,168.822 448,159.99C448,151.158 440.832,143.99 432,143.99Z" style="fill:rgb(148,148,148);fill-rule:nonzero;"/>
        </g>
        <g transform="matrix(1,0,0,1,-44.7272,108.618)">
            <path d="M432,207.99L272,207.99C263.168,207.99 256,215.158 256,223.99C256,232.822 263.168,239.99 272,239.99L432,239.99C440.832,239.99 448,232.822 448,223.99C448,215.158 440.832,207.99 432,207.99Z" style="fill:rgb(148,148,148);fill-rule:nonzero;"/>
        </g>
        <g transform="matrix(1,0,0,1,-44.7272,108.618)">
            <path d="M432,271.99L272,271.99C263.168,271.99 256,279.158 256,287.99C256,296.822 263.168,303.99 272,303.99L432,303.99C440.832,303.99 448,296.822 448,287.99C448,279.158 440.832,271.99 432,271.99Z" style="fill:rgb(148,148,148);fill-rule:nonzero;"/>
        </g>
        <g transform="matrix(1,0,0,1,-44.7272,108.618)">
            <path d="M432,335.99L272,335.99C263.168,335.99 256,343.158 256,351.99C256,360.822 263.168,367.99 272,367.99L432,367.99C440.832,367.99 448,360.822 448,351.99C448,343.158 440.832,335.99 432,335.99Z" style="fill:rgb(148,148,148);fill-rule:nonzero;"/>
        </g>
        <g transform="matrix(1,0,0,1,-44.7272,108.618)">
            <path d="M209.76,176.086C201.28,175.222 193.056,181.43 192.096,190.198L183.488,267.702L158.976,202.358C154.272,189.878 133.664,189.878 128.992,202.358L102.976,271.766L95.84,221.718C94.592,212.95 86.4,206.742 77.728,208.15C68.992,209.398 62.912,217.494 64.16,226.23L80.16,338.23C81.184,345.494 87.008,351.126 94.272,351.894C101.696,352.63 108.416,348.47 110.976,341.622L144,253.558L177.024,341.622C179.392,347.894 185.408,351.99 192,351.99C192.672,351.99 193.312,351.958 193.984,351.83C201.312,350.934 207.072,345.078 207.904,337.75L223.904,193.75C224.864,184.982 218.56,177.078 209.76,176.086Z" style="fill:rgb(148,148,148);fill-rule:nonzero;"/>
        </g>
    </g>
</svg>
