<?xml version="1.0" encoding="UTF-8" standalone="no"?>
<!DOCTYPE svg PUBLIC "-//W3C//DTD SVG 1.1//EN" "http://www.w3.org/Graphics/SVG/1.1/DTD/svg11.dtd">
<svg width="100%" height="100%" viewBox="0 0 30 60" version="1.1" xmlns="http://www.w3.org/2000/svg" xmlns:xlink="http://www.w3.org/1999/xlink" xml:space="preserve" xmlns:serif="http://www.serif.com/" style="fill-rule:evenodd;clip-rule:evenodd;stroke-linejoin:round;stroke-miterlimit:1.41421;">
    <g>
        <g id="Forma-1" serif:id="Forma 1" transform="matrix(1,0,0,1,6,4)">
            <path d="M1.5,18.5L2.75,18.5L2.75,19.75C2.75,20.44 3.31,21 4,21L16.5,21C17.19,21 17.75,20.44 17.75,19.75L17.75,4.75C17.75,4.06 17.19,3.5 16.5,3.5L15.25,3.5L15.25,2.25C15.25,1.56 14.69,1 14,1L1.5,1C0.81,1 0.25,1.56 0.25,2.25L0.25,17.25C0.25,17.94 0.81,18.5 1.5,18.5ZM14,17.25L1.5,17.25L1.5,2.25L14,2.25L14,17.25ZM16.5,4.75L16.5,19.75L4,19.75L4,18.5L14,18.5C14.69,18.5 15.25,17.94 15.25,17.25L15.25,4.75L16.5,4.75Z" style="fill:rgb(131,131,131);fill-rule:nonzero;"/>
        </g>
        <g id="Rounded-Rectangle-1-copy" serif:id="Rounded Rectangle 1 copy" transform="matrix(1,0,0,1,6,4)">
            <path d="M3.73,4L6.8,4C7.09,4 7.32,4.27 7.32,4.6C7.32,4.94 7.09,5.21 6.8,5.21L3.73,5.21C3.44,5.21 3.21,4.94 3.21,4.6C3.21,4.27 3.44,4 3.73,4Z" style="fill:rgb(131,131,131);fill-rule:nonzero;"/>
        </g>
        <g id="Rounded-Rectangle-2-copy-3" serif:id="Rounded Rectangle 2 copy 3" transform="matrix(1,0,0,1,6,4)">
            <path d="M3.51,8.26L11.47,8.26C11.76,8.26 11.99,8.53 11.99,8.87C11.99,9.2 11.76,9.47 11.47,9.47L3.51,9.47C3.22,9.47 2.99,9.2 2.99,8.87C2.99,8.53 3.22,8.26 3.51,8.26Z" style="fill:rgb(131,131,131);fill-rule:nonzero;"/>
        </g>
        <g id="Rounded-Rectangle-2-copy-4" serif:id="Rounded Rectangle 2 copy 4" transform="matrix(1,0,0,1,6,4)">
            <path d="M3.51,11.53L11.47,11.53C11.76,11.53 11.99,11.8 11.99,12.14C11.99,12.47 11.76,12.74 11.47,12.74L3.51,12.74C3.22,12.74 2.99,12.47 2.99,12.14C2.99,11.8 3.22,11.53 3.51,11.53Z" style="fill:rgb(131,131,131);fill-rule:nonzero;"/>
        </g>
        <g id="Rounded-Rectangle-2-copy-5" serif:id="Rounded Rectangle 2 copy 5" transform="matrix(1,0,0,1,6,4)">
            <path d="M3.51,14.8L11.47,14.8C11.76,14.8 11.99,15.07 11.99,15.41C11.99,15.74 11.76,16.01 11.47,16.01L3.51,16.01C3.22,16.01 2.99,15.74 2.99,15.41C2.99,15.07 3.22,14.8 3.51,14.8Z" style="fill:rgb(131,131,131);fill-rule:nonzero;"/>
        </g>
    </g>
    <g>
        <g id="Forma-11" serif:id="Forma 1" transform="matrix(1,0,0,1,6,34)">
            <path d="M1.5,18.5L2.75,18.5L2.75,19.75C2.75,20.44 3.31,21 4,21L16.5,21C17.19,21 17.75,20.44 17.75,19.75L17.75,4.75C17.75,4.06 17.19,3.5 16.5,3.5L15.25,3.5L15.25,2.25C15.25,1.56 14.69,1 14,1L1.5,1C0.81,1 0.25,1.56 0.25,2.25L0.25,17.25C0.25,17.94 0.81,18.5 1.5,18.5ZM14,17.25L1.5,17.25L1.5,2.25L14,2.25L14,17.25ZM16.5,4.75L16.5,19.75L4,19.75L4,18.5L14,18.5C14.69,18.5 15.25,17.94 15.25,17.25L15.25,4.75L16.5,4.75Z" style="fill:rgb(92,24,114);fill-rule:nonzero;"/>
        </g>
        <g id="Rounded-Rectangle-1-copy1" serif:id="Rounded Rectangle 1 copy" transform="matrix(1,0,0,1,6,34)">
            <path d="M3.73,4L6.8,4C7.09,4 7.32,4.27 7.32,4.6C7.32,4.94 7.09,5.21 6.8,5.21L3.73,5.21C3.44,5.21 3.21,4.94 3.21,4.6C3.21,4.27 3.44,4 3.73,4Z" style="fill:rgb(92,24,114);fill-rule:nonzero;"/>
        </g>
        <g id="Rounded-Rectangle-2-copy-31" serif:id="Rounded Rectangle 2 copy 3" transform="matrix(1,0,0,1,6,34)">
            <path d="M3.51,8.26L11.47,8.26C11.76,8.26 11.99,8.53 11.99,8.87C11.99,9.2 11.76,9.47 11.47,9.47L3.51,9.47C3.22,9.47 2.99,9.2 2.99,8.87C2.99,8.53 3.22,8.26 3.51,8.26Z" style="fill:rgb(92,24,114);fill-rule:nonzero;"/>
        </g>
        <g id="Rounded-Rectangle-2-copy-41" serif:id="Rounded Rectangle 2 copy 4" transform="matrix(1,0,0,1,6,34)">
            <path d="M3.51,11.53L11.47,11.53C11.76,11.53 11.99,11.8 11.99,12.14C11.99,12.47 11.76,12.74 11.47,12.74L3.51,12.74C3.22,12.74 2.99,12.47 2.99,12.14C2.99,11.8 3.22,11.53 3.51,11.53Z" style="fill:rgb(92,24,114);fill-rule:nonzero;"/>
        </g>
        <g id="Rounded-Rectangle-2-copy-51" serif:id="Rounded Rectangle 2 copy 5" transform="matrix(1,0,0,1,6,34)">
            <path d="M3.51,14.8L11.47,14.8C11.76,14.8 11.99,15.07 11.99,15.41C11.99,15.74 11.76,16.01 11.47,16.01L3.51,16.01C3.22,16.01 2.99,15.74 2.99,15.41C2.99,15.07 3.22,14.8 3.51,14.8Z" style="fill:rgb(92,24,114);fill-rule:nonzero;"/>
        </g>
    </g>
</svg>
