<?xml version="1.0" encoding="UTF-8" standalone="no"?>
<!DOCTYPE svg PUBLIC "-//W3C//DTD SVG 1.1//EN" "http://www.w3.org/Graphics/SVG/1.1/DTD/svg11.dtd">
<svg width="100%" height="100%" viewBox="0 0 25 25" version="1.1" xmlns="http://www.w3.org/2000/svg" xmlns:xlink="http://www.w3.org/1999/xlink" xml:space="preserve" xmlns:serif="http://www.serif.com/" style="fill-rule:evenodd;clip-rule:evenodd;stroke-linejoin:round;stroke-miterlimit:1.41421;">
    <g id="Shape-1" serif:id="Shape 1" transform="matrix(1,0,0,1,-1452,-705.012)">
        <path d="M1463.3,711.22C1463.69,711.226 1463.99,711.539 1463.99,711.919C1463.99,712.305 1463.68,712.62 1463.3,712.62L1456.7,712.62C1456.53,712.62 1456.4,712.756 1456.4,712.927L1456.4,725.292C1456.4,725.463 1456.53,725.599 1456.7,725.599L1469.06,725.599C1469.24,725.592 1469.36,725.458 1469.36,725.292L1469.36,718.964C1469.36,718.578 1469.68,718.263 1470.06,718.263C1470.45,718.263 1470.76,718.578 1470.76,718.964L1470.76,725.292C1470.76,726.233 1470,726.999 1469.06,726.999L1456.7,726.999C1455.77,726.999 1455,726.233 1455,725.292L1455,712.927C1455,711.99 1455.76,711.226 1456.7,711.22L1463.3,711.22ZM1473.97,711.915C1473.94,711.854 1473.93,711.776 1473.91,711.698C1473.87,711.492 1473.83,711.262 1473.72,711.029C1473.14,709.699 1472.17,708.754 1470.86,708.221C1470.57,708.104 1470.29,708.069 1470.04,708.042L1469.98,708.034C1469.69,707.999 1469.26,708.038 1468.86,708.446C1467.16,710.154 1465.44,711.885 1463.76,713.561L1462.53,714.786C1462.26,715.062 1462.14,715.175 1462.09,715.233C1462.03,715.292 1462.03,715.292 1461.98,715.339C1461.93,715.389 1461.83,715.498 1461.52,715.805C1461.25,716.081 1461.26,716.525 1461.53,716.797C1461.81,717.07 1462.25,717.065 1462.52,716.789C1462.83,716.478 1462.93,716.369 1462.98,716.319C1463.03,716.276 1463.03,716.276 1463.08,716.225C1463.14,716.167 1463.25,716.054 1463.52,715.778L1464.75,714.549C1466.43,712.873 1468.16,711.142 1469.86,709.431L1469.86,709.426L1469.87,709.426C1470.05,709.45 1470.22,709.469 1470.34,709.516C1471.32,709.913 1472.01,710.593 1472.44,711.589C1472.49,711.69 1472.52,711.83 1472.55,711.982C1472.56,712.021 1472.57,712.056 1472.57,712.095C1472.57,712.099 1472.57,712.103 1472.56,712.11C1469.76,714.903 1466.85,717.816 1463.65,721.021C1463.64,721.036 1463.64,721.036 1463.61,721.044C1462.54,721.27 1461.45,721.499 1460.4,721.721L1460.23,721.756L1460.26,721.612C1460.49,720.542 1460.72,719.438 1460.96,718.353C1461.04,717.976 1460.81,717.602 1460.43,717.521C1460.05,717.439 1459.68,717.676 1459.6,718.053C1459.36,719.142 1459.13,720.251 1458.9,721.324L1458.77,721.931C1458.69,722.304 1458.8,722.682 1459.06,722.939C1459.26,723.141 1459.53,723.25 1459.82,723.25C1459.9,723.25 1459.99,723.242 1460.07,723.222L1460.7,723.09C1461.75,722.868 1462.84,722.639 1463.9,722.413C1464.2,722.351 1464.44,722.219 1464.65,722.009C1467.85,718.804 1470.76,715.891 1473.55,713.098C1473.81,712.837 1473.96,712.526 1473.99,712.153C1474,712.075 1473.99,711.993 1473.97,711.915Z" style="fill:rgb(148,148,148);"/>
    </g>
</svg>
