<svg width="512" height="351" viewBox="0 0 512 351" fill="none" xmlns="http://www.w3.org/2000/svg">
<path d="M142.711 11.2637C145.243 11.2637 147.118 12.0775 148.336 13.7051C149.286 14.9746 149.762 16.599 149.762 18.5781C149.762 20.7201 149.218 22.5007 148.131 23.9199C146.855 25.5866 145.035 26.4199 142.672 26.4199C140.465 26.4199 138.73 25.6908 137.467 24.2324C136.34 22.8262 135.777 21.0488 135.777 18.9004C135.777 16.9603 136.259 15.3001 137.223 13.9199C138.46 12.1491 140.289 11.2637 142.711 11.2637ZM142.906 24.6816C144.618 24.6816 145.855 24.0697 146.617 22.8457C147.385 21.6152 147.77 20.2025 147.77 18.6074C147.77 16.9212 147.327 15.5638 146.441 14.5352C145.562 13.5065 144.358 12.9922 142.828 12.9922C141.344 12.9922 140.133 13.5033 139.195 14.5254C138.258 15.541 137.789 17.0417 137.789 19.0273C137.789 20.6159 138.189 21.957 138.99 23.0508C139.797 24.138 141.103 24.6816 142.906 24.6816ZM156.266 24.8184C157.086 24.8184 157.766 24.4766 158.307 23.793C158.853 23.1029 159.127 22.0742 159.127 20.707C159.127 19.8737 159.006 19.1576 158.766 18.5586C158.31 17.4062 157.477 16.8301 156.266 16.8301C155.048 16.8301 154.215 17.4388 153.766 18.6562C153.525 19.3073 153.404 20.1341 153.404 21.1367C153.404 21.944 153.525 22.6309 153.766 23.1973C154.221 24.278 155.055 24.8184 156.266 24.8184ZM151.715 15.5898H153.424V16.9766C153.775 16.5013 154.159 16.1335 154.576 15.873C155.169 15.4824 155.865 15.2871 156.666 15.2871C157.851 15.2871 158.857 15.7428 159.684 16.6543C160.51 17.5592 160.924 18.8548 160.924 20.541C160.924 22.8197 160.328 24.4473 159.137 25.4238C158.381 26.0423 157.503 26.3516 156.5 26.3516C155.712 26.3516 155.051 26.179 154.518 25.834C154.205 25.6387 153.857 25.3034 153.473 24.8281V30.1699H151.715V15.5898ZM167.398 24.8184C168.219 24.8184 168.899 24.4766 169.439 23.793C169.986 23.1029 170.26 22.0742 170.26 20.707C170.26 19.8737 170.139 19.1576 169.898 18.5586C169.443 17.4062 168.609 16.8301 167.398 16.8301C166.181 16.8301 165.348 17.4388 164.898 18.6562C164.658 19.3073 164.537 20.1341 164.537 21.1367C164.537 21.944 164.658 22.6309 164.898 23.1973C165.354 24.278 166.187 24.8184 167.398 24.8184ZM162.848 15.5898H164.557V16.9766C164.908 16.5013 165.292 16.1335 165.709 15.873C166.301 15.4824 166.998 15.2871 167.799 15.2871C168.984 15.2871 169.99 15.7428 170.816 16.6543C171.643 17.5592 172.057 18.8548 172.057 20.541C172.057 22.8197 171.461 24.4473 170.27 25.4238C169.514 26.0423 168.635 26.3516 167.633 26.3516C166.845 26.3516 166.184 26.179 165.65 25.834C165.338 25.6387 164.99 25.3034 164.605 24.8281V30.1699H162.848V15.5898ZM175.162 22.7188C175.214 23.3047 175.361 23.7539 175.602 24.0664C176.044 24.6328 176.812 24.916 177.906 24.916C178.557 24.916 179.13 24.776 179.625 24.4961C180.12 24.2096 180.367 23.7702 180.367 23.1777C180.367 22.7285 180.169 22.3867 179.771 22.1523C179.518 22.0091 179.016 21.8431 178.268 21.6543L176.871 21.3027C175.979 21.0814 175.322 20.834 174.898 20.5605C174.143 20.0853 173.766 19.4277 173.766 18.5879C173.766 17.5983 174.12 16.7975 174.83 16.1855C175.546 15.5736 176.506 15.2676 177.711 15.2676C179.286 15.2676 180.422 15.7298 181.119 16.6543C181.555 17.2402 181.767 17.8717 181.754 18.5488H180.094C180.061 18.1517 179.921 17.7904 179.674 17.4648C179.27 17.0026 178.57 16.7715 177.574 16.7715C176.91 16.7715 176.406 16.8984 176.061 17.1523C175.722 17.4062 175.553 17.7415 175.553 18.1582C175.553 18.6139 175.777 18.9785 176.227 19.252C176.487 19.4147 176.871 19.5579 177.379 19.6816L178.541 19.9648C179.804 20.2708 180.65 20.5671 181.08 20.8535C181.764 21.3027 182.105 22.0091 182.105 22.9727C182.105 23.9036 181.751 24.7077 181.041 25.3848C180.338 26.0618 179.264 26.4004 177.818 26.4004C176.262 26.4004 175.159 26.0488 174.508 25.3457C173.863 24.6361 173.518 23.7604 173.473 22.7188H175.162ZM185.143 11.6543H187.125V16.3711L186.646 22.582H185.65L185.143 16.3711V11.6543ZM185.143 23.9688H187.086V26H185.143V23.9688ZM190.709 11.6543H192.691V16.3711L192.213 22.582H191.217L190.709 16.3711V11.6543ZM190.709 23.9688H192.652V26H190.709V23.9688ZM196.275 11.6543H198.258V16.3711L197.779 22.582H196.783L196.275 16.3711V11.6543ZM196.275 23.9688H198.219V26H196.275V23.9688ZM212.369 11.6543H218.824C220.1 11.6543 221.129 12.0156 221.91 12.7383C222.691 13.4544 223.082 14.4635 223.082 15.7656C223.082 16.8854 222.734 17.862 222.037 18.6953C221.34 19.5221 220.27 19.9355 218.824 19.9355H214.312V26H212.369V11.6543ZM221.119 15.7754C221.119 14.7207 220.728 14.0046 219.947 13.627C219.518 13.4251 218.928 13.3242 218.18 13.3242H214.312V18.2949H218.18C219.052 18.2949 219.758 18.1094 220.299 17.7383C220.846 17.3672 221.119 16.7129 221.119 15.7754ZM226.637 23.2168C226.637 23.7246 226.822 24.125 227.193 24.418C227.564 24.7109 228.004 24.8574 228.512 24.8574C229.13 24.8574 229.729 24.7142 230.309 24.4277C231.285 23.9525 231.773 23.1745 231.773 22.0938V20.6777C231.559 20.8145 231.282 20.9284 230.943 21.0195C230.605 21.1107 230.273 21.1758 229.947 21.2148L228.883 21.3516C228.245 21.4362 227.766 21.5697 227.447 21.752C226.907 22.0579 226.637 22.5462 226.637 23.2168ZM230.895 19.6621C231.298 19.61 231.568 19.4408 231.705 19.1543C231.783 18.998 231.822 18.7734 231.822 18.4805C231.822 17.8815 231.607 17.4486 231.178 17.1816C230.755 16.9082 230.146 16.7715 229.352 16.7715C228.434 16.7715 227.783 17.0189 227.398 17.5137C227.184 17.7871 227.044 18.194 226.978 18.7344H225.338C225.37 17.4453 225.787 16.5501 226.588 16.0488C227.395 15.541 228.329 15.2871 229.391 15.2871C230.621 15.2871 231.62 15.5215 232.389 15.9902C233.15 16.459 233.531 17.1882 233.531 18.1777V24.2031C233.531 24.3854 233.567 24.5319 233.639 24.6426C233.717 24.7533 233.876 24.8086 234.117 24.8086C234.195 24.8086 234.283 24.8053 234.381 24.7988C234.478 24.7858 234.583 24.7695 234.693 24.75V26.0488C234.42 26.127 234.212 26.1758 234.068 26.1953C233.925 26.2148 233.73 26.2246 233.482 26.2246C232.877 26.2246 232.437 26.0098 232.164 25.5801C232.021 25.3522 231.92 25.0299 231.861 24.6133C231.503 25.082 230.989 25.4889 230.318 25.834C229.648 26.179 228.909 26.3516 228.102 26.3516C227.131 26.3516 226.337 26.0586 225.719 25.4727C225.107 24.8802 224.801 24.1413 224.801 23.2559C224.801 22.2858 225.103 21.5339 225.709 21C226.314 20.4661 227.109 20.1374 228.092 20.0137L230.895 19.6621ZM240.113 15.3555C240.934 15.3555 241.65 15.5573 242.262 15.9609C242.594 16.1888 242.932 16.5208 243.277 16.957V15.6387H244.898V25.1504C244.898 26.4785 244.703 27.5267 244.312 28.2949C243.583 29.7142 242.206 30.4238 240.182 30.4238C239.055 30.4238 238.108 30.1699 237.34 29.6621C236.572 29.1608 236.142 28.373 236.051 27.2988H237.838C237.922 27.7676 238.092 28.1289 238.346 28.3828C238.743 28.7734 239.368 28.9688 240.221 28.9688C241.568 28.9688 242.45 28.4935 242.867 27.543C243.115 26.9831 243.228 25.9837 243.209 24.5449C242.857 25.0788 242.434 25.4759 241.939 25.7363C241.445 25.9967 240.79 26.127 239.977 26.127C238.844 26.127 237.851 25.7266 236.998 24.9258C236.152 24.1185 235.728 22.7871 235.728 20.9316C235.728 19.1803 236.155 17.8132 237.008 16.8301C237.867 15.847 238.902 15.3555 240.113 15.3555ZM243.277 20.7266C243.277 19.431 243.01 18.4707 242.477 17.8457C241.943 17.2207 241.262 16.9082 240.436 16.9082C239.199 16.9082 238.352 17.4876 237.896 18.6465C237.656 19.265 237.535 20.0755 237.535 21.0781C237.535 22.2565 237.773 23.1549 238.248 23.7734C238.73 24.3854 239.374 24.6914 240.182 24.6914C241.445 24.6914 242.333 24.1217 242.848 22.9824C243.134 22.3379 243.277 21.5859 243.277 20.7266ZM251.91 15.3066C252.652 15.3066 253.372 15.4824 254.068 15.834C254.765 16.179 255.296 16.6283 255.66 17.1816C256.012 17.709 256.246 18.3242 256.363 19.0273C256.467 19.5091 256.52 20.2773 256.52 21.332H248.853C248.886 22.3932 249.137 23.2461 249.605 23.8906C250.074 24.5286 250.8 24.8477 251.783 24.8477C252.701 24.8477 253.434 24.5449 253.98 23.9395C254.293 23.5879 254.514 23.181 254.645 22.7188H256.373C256.327 23.1029 256.174 23.5326 255.914 24.0078C255.66 24.4766 255.374 24.8607 255.055 25.1602C254.521 25.681 253.86 26.0326 253.072 26.2148C252.649 26.319 252.171 26.3711 251.637 26.3711C250.335 26.3711 249.231 25.8991 248.326 24.9551C247.421 24.0046 246.969 22.6764 246.969 20.9707C246.969 19.291 247.424 17.9271 248.336 16.8789C249.247 15.8307 250.439 15.3066 251.91 15.3066ZM254.713 19.9355C254.641 19.1738 254.475 18.5651 254.215 18.1094C253.733 17.263 252.929 16.8398 251.803 16.8398C250.995 16.8398 250.318 17.1328 249.771 17.7188C249.225 18.2982 248.935 19.0371 248.902 19.9355H254.713ZM264.488 11.6543H266.783L274.029 23.2754V11.6543H275.875V26H273.697L266.344 14.3887V26H264.488V11.6543ZM282.857 24.8672C284.023 24.8672 284.82 24.4277 285.25 23.5488C285.686 22.6634 285.904 21.6803 285.904 20.5996C285.904 19.623 285.748 18.8288 285.436 18.2168C284.941 17.2533 284.088 16.7715 282.877 16.7715C281.803 16.7715 281.021 17.1816 280.533 18.002C280.045 18.8223 279.801 19.8118 279.801 20.9707C279.801 22.084 280.045 23.0117 280.533 23.7539C281.021 24.4961 281.796 24.8672 282.857 24.8672ZM282.926 15.2383C284.273 15.2383 285.413 15.6875 286.344 16.5859C287.275 17.4844 287.74 18.806 287.74 20.5508C287.74 22.237 287.33 23.6302 286.51 24.7305C285.689 25.8307 284.417 26.3809 282.691 26.3809C281.253 26.3809 280.11 25.8958 279.264 24.9258C278.417 23.9492 277.994 22.6406 277.994 21C277.994 19.2422 278.44 17.8424 279.332 16.8008C280.224 15.7591 281.422 15.2383 282.926 15.2383ZM290.191 12.6211H291.969V15.541H293.639V16.9766H291.969V23.8027C291.969 24.1673 292.092 24.4115 292.34 24.5352C292.477 24.6068 292.704 24.6426 293.023 24.6426C293.108 24.6426 293.199 24.6426 293.297 24.6426C293.395 24.6361 293.508 24.6263 293.639 24.6133V26C293.437 26.0586 293.225 26.1009 293.004 26.127C292.789 26.153 292.555 26.166 292.301 26.166C291.48 26.166 290.924 25.9577 290.631 25.541C290.338 25.1178 290.191 24.571 290.191 23.9004V16.9766H288.775V15.541H290.191V12.6211ZM301.393 11.6543H311.344V13.4121H303.336V17.7676H310.377V19.4766H303.336V26H301.393V11.6543ZM317.35 24.8672C318.515 24.8672 319.312 24.4277 319.742 23.5488C320.178 22.6634 320.396 21.6803 320.396 20.5996C320.396 19.623 320.24 18.8288 319.928 18.2168C319.433 17.2533 318.58 16.7715 317.369 16.7715C316.295 16.7715 315.514 17.1816 315.025 18.002C314.537 18.8223 314.293 19.8118 314.293 20.9707C314.293 22.084 314.537 23.0117 315.025 23.7539C315.514 24.4961 316.288 24.8672 317.35 24.8672ZM317.418 15.2383C318.766 15.2383 319.905 15.6875 320.836 16.5859C321.767 17.4844 322.232 18.806 322.232 20.5508C322.232 22.237 321.822 23.6302 321.002 24.7305C320.182 25.8307 318.909 26.3809 317.184 26.3809C315.745 26.3809 314.602 25.8958 313.756 24.9258C312.909 23.9492 312.486 22.6406 312.486 21C312.486 19.2422 312.932 17.8424 313.824 16.8008C314.716 15.7591 315.914 15.2383 317.418 15.2383ZM326.09 15.541V22.4844C326.09 23.0182 326.174 23.4544 326.344 23.793C326.656 24.418 327.239 24.7305 328.092 24.7305C329.316 24.7305 330.149 24.1836 330.592 23.0898C330.833 22.5039 330.953 21.6999 330.953 20.6777V15.541H332.711V26H331.051L331.07 24.457C330.842 24.8542 330.559 25.1895 330.221 25.4629C329.55 26.0098 328.736 26.2832 327.779 26.2832C326.288 26.2832 325.273 25.7852 324.732 24.7891C324.439 24.2552 324.293 23.5423 324.293 22.6504V15.541H326.09ZM335.465 15.541H337.135V17.0254C337.63 16.4134 338.154 15.974 338.707 15.707C339.26 15.4401 339.876 15.3066 340.553 15.3066C342.037 15.3066 343.04 15.8242 343.561 16.8594C343.847 17.4258 343.99 18.2363 343.99 19.291V26H342.203V19.4082C342.203 18.7702 342.109 18.2559 341.92 17.8652C341.607 17.2142 341.041 16.8887 340.221 16.8887C339.804 16.8887 339.462 16.931 339.195 17.0156C338.714 17.1589 338.29 17.4453 337.926 17.875C337.633 18.2201 337.441 18.5781 337.35 18.9492C337.265 19.3138 337.223 19.8379 337.223 20.5215V26H335.465V15.541ZM347.711 20.8926C347.711 22.0124 347.949 22.9499 348.424 23.7051C348.899 24.4603 349.661 24.8379 350.709 24.8379C351.523 24.8379 352.19 24.4896 352.711 23.793C353.238 23.0898 353.502 22.084 353.502 20.7754C353.502 19.4538 353.232 18.4772 352.691 17.8457C352.151 17.2077 351.484 16.8887 350.689 16.8887C349.804 16.8887 349.085 17.2272 348.531 17.9043C347.984 18.5814 347.711 19.5775 347.711 20.8926ZM350.357 15.3555C351.158 15.3555 351.829 15.5247 352.369 15.8633C352.682 16.0586 353.036 16.4004 353.434 16.8887V11.6055H355.123V26H353.541V24.5449C353.131 25.1895 352.646 25.6549 352.086 25.9414C351.526 26.2279 350.885 26.3711 350.162 26.3711C348.997 26.3711 347.988 25.8828 347.135 24.9062C346.282 23.9232 345.855 22.6178 345.855 20.9902C345.855 19.4668 346.243 18.1484 347.018 17.0352C347.799 15.9154 348.912 15.3555 350.357 15.3555Z" fill="black"/>
<path d="M18.8362 297.602L21.5413 309.272L24.7835 297.602H26.8929L30.135 309.272L32.8401 297.602H34.969L31.1995 311.947H29.1585L25.8479 300.053L22.5179 311.947H20.4768L16.7268 297.602H18.8362ZM36.9612 297.602H47.4202V299.36H38.8557V303.715H46.7757V305.375H38.8557V310.238H47.5667V311.947H36.9612V297.602ZM61.9514 306.069L59.7737 299.731L57.4593 306.069H61.9514ZM58.7581 297.602H60.9554L66.1604 311.947H64.0315L62.5764 307.651H56.9026L55.3499 311.947H53.3577L58.7581 297.602ZM74.5979 304.174C75.5094 304.174 76.2288 303.992 76.7561 303.627C77.29 303.263 77.5569 302.605 77.5569 301.654C77.5569 300.632 77.1858 299.936 76.4436 299.565C76.0465 299.369 75.5159 299.272 74.8518 299.272H70.1057V304.174H74.5979ZM68.1624 297.602H74.803C75.8968 297.602 76.7985 297.761 77.5081 298.08C78.8557 298.692 79.5296 299.822 79.5296 301.469C79.5296 302.328 79.3505 303.031 78.9925 303.578C78.6409 304.125 78.1461 304.565 77.5081 304.897C78.068 305.125 78.4879 305.424 78.7679 305.795C79.0543 306.166 79.2138 306.768 79.2464 307.602L79.3147 309.526C79.3343 310.072 79.3798 310.479 79.4514 310.746C79.5686 311.202 79.777 311.495 80.0764 311.625V311.947H77.6936C77.6285 311.824 77.5764 311.664 77.5374 311.469C77.4983 311.274 77.4658 310.896 77.4397 310.336L77.3225 307.944C77.277 307.006 76.9287 306.378 76.2776 306.059C75.9065 305.883 75.3238 305.795 74.5296 305.795H70.1057V311.947H68.1624V297.602ZM82.5667 297.602H93.0257V299.36H84.4612V303.715H92.3811V305.375H84.4612V310.238H93.1721V311.947H82.5667V297.602ZM102.557 307.319C102.602 308.132 102.795 308.793 103.133 309.301C103.778 310.251 104.914 310.727 106.541 310.727C107.27 310.727 107.935 310.623 108.533 310.414C109.692 310.011 110.272 309.288 110.272 308.246C110.272 307.465 110.028 306.908 109.539 306.576C109.045 306.251 108.27 305.968 107.215 305.727L105.272 305.287C104.002 305.001 103.104 304.685 102.576 304.34C101.665 303.741 101.209 302.846 101.209 301.654C101.209 300.365 101.655 299.307 102.547 298.481C103.439 297.654 104.702 297.24 106.336 297.24C107.84 297.24 109.116 297.605 110.164 298.334C111.219 299.057 111.746 300.216 111.746 301.811H109.92C109.823 301.043 109.614 300.453 109.295 300.043C108.703 299.294 107.697 298.92 106.278 298.92C105.132 298.92 104.308 299.161 103.807 299.643C103.306 300.125 103.055 300.684 103.055 301.322C103.055 302.026 103.348 302.54 103.934 302.865C104.318 303.074 105.187 303.334 106.541 303.647L108.553 304.106C109.523 304.327 110.272 304.63 110.799 305.014C111.711 305.684 112.166 306.658 112.166 307.934C112.166 309.522 111.587 310.658 110.428 311.342C109.276 312.026 107.935 312.367 106.405 312.367C104.621 312.367 103.224 311.912 102.215 311C101.206 310.095 100.711 308.868 100.731 307.319H102.557ZM120.819 297.211C123.351 297.211 125.226 298.025 126.444 299.653C127.394 300.922 127.869 302.546 127.869 304.526C127.869 306.668 127.326 308.448 126.239 309.867C124.963 311.534 123.143 312.367 120.78 312.367C118.573 312.367 116.838 311.638 115.574 310.18C114.448 308.774 113.885 306.996 113.885 304.848C113.885 302.908 114.367 301.248 115.33 299.867C116.567 298.097 118.397 297.211 120.819 297.211ZM121.014 310.629C122.726 310.629 123.963 310.017 124.725 308.793C125.493 307.563 125.877 306.15 125.877 304.555C125.877 302.869 125.435 301.511 124.549 300.483C123.67 299.454 122.466 298.94 120.936 298.94C119.451 298.94 118.241 299.451 117.303 300.473C116.366 301.488 115.897 302.989 115.897 304.975C115.897 306.563 116.297 307.904 117.098 308.998C117.905 310.085 119.211 310.629 121.014 310.629ZM136.864 304.174C137.775 304.174 138.494 303.992 139.022 303.627C139.556 303.263 139.823 302.605 139.823 301.654C139.823 300.632 139.451 299.936 138.709 299.565C138.312 299.369 137.782 299.272 137.117 299.272H132.371V304.174H136.864ZM130.428 297.602H137.069C138.162 297.602 139.064 297.761 139.774 298.08C141.121 298.692 141.795 299.822 141.795 301.469C141.795 302.328 141.616 303.031 141.258 303.578C140.907 304.125 140.412 304.565 139.774 304.897C140.334 305.125 140.754 305.424 141.033 305.795C141.32 306.166 141.479 306.768 141.512 307.602L141.58 309.526C141.6 310.072 141.645 310.479 141.717 310.746C141.834 311.202 142.043 311.495 142.342 311.625V311.947H139.959C139.894 311.824 139.842 311.664 139.803 311.469C139.764 311.274 139.731 310.896 139.705 310.336L139.588 307.944C139.543 307.006 139.194 306.378 138.543 306.059C138.172 305.883 137.589 305.795 136.795 305.795H132.371V311.947H130.428V297.602ZM151.317 304.174C152.228 304.174 152.948 303.992 153.475 303.627C154.009 303.263 154.276 302.605 154.276 301.654C154.276 300.632 153.905 299.936 153.162 299.565C152.765 299.369 152.235 299.272 151.571 299.272H146.824V304.174H151.317ZM144.881 297.602H151.522C152.616 297.602 153.517 297.761 154.227 298.08C155.574 298.692 156.248 299.822 156.248 301.469C156.248 302.328 156.069 303.031 155.711 303.578C155.36 304.125 154.865 304.565 154.227 304.897C154.787 305.125 155.207 305.424 155.487 305.795C155.773 306.166 155.933 306.768 155.965 307.602L156.033 309.526C156.053 310.072 156.099 310.479 156.17 310.746C156.287 311.202 156.496 311.495 156.795 311.625V311.947H154.412C154.347 311.824 154.295 311.664 154.256 311.469C154.217 311.274 154.185 310.896 154.158 310.336L154.041 307.944C153.996 307.006 153.647 306.378 152.996 306.059C152.625 305.883 152.043 305.795 151.248 305.795H146.824V311.947H144.881V297.602ZM157.635 297.602H159.901L164.022 304.496L168.143 297.602H170.418L164.998 306.166V311.947H163.055V306.166L157.635 297.602ZM169.647 313.988C170.096 313.91 170.412 313.595 170.594 313.041C170.692 312.748 170.741 312.465 170.741 312.192C170.741 312.146 170.737 312.104 170.731 312.065C170.731 312.032 170.724 311.993 170.711 311.947H169.647V309.819H171.737V311.791C171.737 312.566 171.58 313.246 171.268 313.832C170.955 314.418 170.415 314.779 169.647 314.916V313.988ZM186.033 303.666C186.854 303.666 187.492 303.552 187.948 303.324C188.664 302.966 189.022 302.322 189.022 301.391C189.022 300.453 188.641 299.822 187.879 299.496C187.449 299.314 186.811 299.223 185.965 299.223H182.498V303.666H186.033ZM186.688 310.287C187.879 310.287 188.729 309.942 189.237 309.252C189.556 308.816 189.715 308.289 189.715 307.67C189.715 306.628 189.25 305.919 188.319 305.541C187.824 305.339 187.17 305.238 186.356 305.238H182.498V310.287H186.688ZM180.594 297.602H186.756C188.436 297.602 189.63 298.103 190.34 299.106C190.757 299.698 190.965 300.382 190.965 301.156C190.965 302.061 190.708 302.804 190.194 303.383C189.927 303.689 189.543 303.969 189.041 304.223C189.777 304.503 190.327 304.819 190.692 305.17C191.336 305.795 191.658 306.658 191.658 307.758C191.658 308.682 191.369 309.519 190.789 310.268C189.923 311.388 188.546 311.947 186.658 311.947H180.594V297.602ZM196.092 297.602V306.469C196.092 307.511 196.287 308.376 196.678 309.067C197.257 310.108 198.234 310.629 199.608 310.629C201.255 310.629 202.375 310.066 202.967 308.94C203.286 308.328 203.446 307.504 203.446 306.469V297.602H205.418V305.658C205.418 307.423 205.181 308.78 204.705 309.731C203.833 311.462 202.186 312.328 199.764 312.328C197.342 312.328 195.698 311.462 194.832 309.731C194.357 308.78 194.119 307.423 194.119 305.658V297.602H196.092ZM218.875 297.602V299.311H214.041V311.947H212.069V299.311H207.235V297.602H218.875ZM235.965 297.602V299.311H231.131V311.947H229.158V299.311H224.324V297.602H235.965ZM237.801 297.602H239.764V303.529H247.225V297.602H249.188V311.947H247.225V305.238H239.764V311.947H237.801V297.602ZM252.391 297.602H262.85V299.36H254.285V303.715H262.205V305.375H254.285V310.238H262.996V311.947H252.391V297.602ZM271.297 297.602H277.752C279.028 297.602 280.057 297.963 280.838 298.686C281.619 299.402 282.01 300.411 282.01 301.713C282.01 302.833 281.662 303.809 280.965 304.643C280.269 305.47 279.198 305.883 277.752 305.883H273.241V311.947H271.297V297.602ZM280.047 301.723C280.047 300.668 279.657 299.952 278.875 299.574C278.446 299.373 277.856 299.272 277.108 299.272H273.241V304.242H277.108C277.98 304.242 278.686 304.057 279.227 303.686C279.774 303.315 280.047 302.66 280.047 301.723ZM290.33 306.069L288.153 299.731L285.838 306.069H290.33ZM287.137 297.602H289.334L294.539 311.947H292.41L290.955 307.651H285.282L283.729 311.947H281.737L287.137 297.602ZM302.508 297.231C303.856 297.231 305.021 297.491 306.004 298.012C307.43 298.761 308.302 300.072 308.621 301.947H306.698C306.463 300.899 305.978 300.138 305.242 299.662C304.507 299.181 303.579 298.94 302.459 298.94C301.131 298.94 300.011 299.438 299.1 300.434C298.195 301.43 297.742 302.914 297.742 304.887C297.742 306.593 298.117 307.983 298.866 309.057C299.614 310.125 300.835 310.658 302.528 310.658C303.823 310.658 304.894 310.284 305.741 309.535C306.593 308.78 307.03 307.563 307.049 305.883H302.557V304.272H308.856V311.947H307.606L307.137 310.102C306.479 310.824 305.897 311.326 305.389 311.606C304.536 312.087 303.452 312.328 302.137 312.328C300.438 312.328 298.976 311.778 297.752 310.678C296.418 309.298 295.75 307.403 295.75 304.994C295.75 302.592 296.401 300.681 297.703 299.262C298.94 297.908 300.542 297.231 302.508 297.231ZM312.059 297.602H322.518V299.36H313.953V303.715H321.873V305.375H313.953V310.238H322.664V311.947H312.059V297.602ZM329.315 297.602H331.58L335.701 304.496L339.823 297.602H342.098L336.678 306.166V311.947H334.735V306.166L329.315 297.602ZM349.959 297.211C352.492 297.211 354.367 298.025 355.584 299.653C356.535 300.922 357.01 302.546 357.01 304.526C357.01 306.668 356.466 308.448 355.379 309.867C354.103 311.534 352.283 312.367 349.92 312.367C347.713 312.367 345.978 311.638 344.715 310.18C343.589 308.774 343.026 306.996 343.026 304.848C343.026 302.908 343.507 301.248 344.471 299.867C345.708 298.097 347.537 297.211 349.959 297.211ZM350.155 310.629C351.867 310.629 353.104 310.017 353.866 308.793C354.634 307.563 355.018 306.15 355.018 304.555C355.018 302.869 354.575 301.511 353.69 300.483C352.811 299.454 351.606 298.94 350.076 298.94C348.592 298.94 347.381 299.451 346.444 300.473C345.506 301.488 345.037 302.989 345.037 304.975C345.037 306.563 345.438 307.904 346.239 308.998C347.046 310.085 348.351 310.629 350.155 310.629ZM361.444 297.602V306.469C361.444 307.511 361.639 308.376 362.03 309.067C362.609 310.108 363.586 310.629 364.959 310.629C366.606 310.629 367.726 310.066 368.319 308.94C368.638 308.328 368.797 307.504 368.797 306.469V297.602H370.77V305.658C370.77 307.423 370.532 308.78 370.057 309.731C369.185 311.462 367.537 312.328 365.116 312.328C362.694 312.328 361.05 311.462 360.184 309.731C359.709 308.78 359.471 307.423 359.471 305.658V297.602H361.444ZM386.024 304.174C386.935 304.174 387.655 303.992 388.182 303.627C388.716 303.263 388.983 302.605 388.983 301.654C388.983 300.632 388.612 299.936 387.869 299.565C387.472 299.369 386.942 299.272 386.278 299.272H381.532V304.174H386.024ZM379.588 297.602H386.229C387.323 297.602 388.224 297.761 388.934 298.08C390.282 298.692 390.955 299.822 390.955 301.469C390.955 302.328 390.776 303.031 390.418 303.578C390.067 304.125 389.572 304.565 388.934 304.897C389.494 305.125 389.914 305.424 390.194 305.795C390.48 306.166 390.64 306.768 390.672 307.602L390.741 309.526C390.76 310.072 390.806 310.479 390.877 310.746C390.994 311.202 391.203 311.495 391.502 311.625V311.947H389.119C389.054 311.824 389.002 311.664 388.963 311.469C388.924 311.274 388.892 310.896 388.866 310.336L388.748 307.944C388.703 307.006 388.354 306.378 387.703 306.059C387.332 305.883 386.75 305.795 385.955 305.795H381.532V311.947H379.588V297.602ZM393.992 297.602H404.451V299.36H395.887V303.715H403.807V305.375H395.887V310.238H404.598V311.947H393.992V297.602ZM420.272 311.908L419.295 313.09L417.078 311.401C416.545 311.694 415.965 311.928 415.34 312.104C414.722 312.279 414.045 312.367 413.309 312.367C411.082 312.367 409.338 311.638 408.074 310.18C406.961 308.761 406.405 306.983 406.405 304.848C406.405 302.908 406.886 301.248 407.85 299.867C409.087 298.097 410.916 297.211 413.338 297.211C415.871 297.211 417.746 298.025 418.963 299.653C419.914 300.922 420.389 302.546 420.389 304.526C420.389 305.45 420.275 306.339 420.047 307.192C419.702 308.494 419.119 309.555 418.299 310.375L420.272 311.908ZM413.543 310.629C413.947 310.629 414.324 310.603 414.676 310.551C415.028 310.492 415.334 310.382 415.594 310.219L414.022 308.988L414.998 307.787L416.873 309.242C417.466 308.565 417.866 307.807 418.074 306.967C418.289 306.127 418.397 305.323 418.397 304.555C418.397 302.869 417.954 301.511 417.069 300.483C416.19 299.454 414.985 298.94 413.455 298.94C411.906 298.94 410.679 299.434 409.774 300.424C408.869 301.407 408.416 302.924 408.416 304.975C408.416 306.7 408.849 308.074 409.715 309.096C410.588 310.118 411.864 310.629 413.543 310.629ZM424.823 297.602V306.469C424.823 307.511 425.018 308.376 425.408 309.067C425.988 310.108 426.964 310.629 428.338 310.629C429.985 310.629 431.105 310.066 431.698 308.94C432.017 308.328 432.176 307.504 432.176 306.469V297.602H434.149V305.658C434.149 307.423 433.911 308.78 433.436 309.731C432.563 311.462 430.916 312.328 428.494 312.328C426.073 312.328 424.429 311.462 423.563 309.731C423.088 308.78 422.85 307.423 422.85 305.658V297.602H424.823ZM437.352 297.602H447.811V299.36H439.246V303.715H447.166V305.375H439.246V310.238H447.957V311.947H437.352V297.602ZM451.776 307.319C451.821 308.132 452.013 308.793 452.352 309.301C452.996 310.251 454.132 310.727 455.76 310.727C456.489 310.727 457.153 310.623 457.752 310.414C458.911 310.011 459.491 309.288 459.491 308.246C459.491 307.465 459.246 306.908 458.758 306.576C458.263 306.251 457.489 305.968 456.434 305.727L454.491 305.287C453.221 305.001 452.323 304.685 451.795 304.34C450.884 303.741 450.428 302.846 450.428 301.654C450.428 300.365 450.874 299.307 451.766 298.481C452.658 297.654 453.921 297.24 455.555 297.24C457.059 297.24 458.335 297.605 459.383 298.334C460.438 299.057 460.965 300.216 460.965 301.811H459.139C459.041 301.043 458.833 300.453 458.514 300.043C457.921 299.294 456.916 298.92 455.496 298.92C454.351 298.92 453.527 299.161 453.026 299.643C452.524 300.125 452.274 300.684 452.274 301.322C452.274 302.026 452.567 302.54 453.153 302.865C453.537 303.074 454.406 303.334 455.76 303.647L457.772 304.106C458.742 304.327 459.491 304.63 460.018 305.014C460.929 305.684 461.385 306.658 461.385 307.934C461.385 309.522 460.806 310.658 459.647 311.342C458.494 312.026 457.153 312.367 455.623 312.367C453.839 312.367 452.443 311.912 451.434 311C450.425 310.095 449.93 308.868 449.949 307.319H451.776ZM474.285 297.602V299.311H469.451V311.947H467.479V299.311H462.645V297.602H474.285ZM476.258 297.602H486.717V299.36H478.153V303.715H486.073V305.375H478.153V310.238H486.864V311.947H476.258V297.602ZM494.92 310.287C495.578 310.287 496.118 310.219 496.541 310.082C497.296 309.828 497.915 309.34 498.397 308.617C498.781 308.038 499.058 307.296 499.227 306.391C499.324 305.85 499.373 305.349 499.373 304.887C499.373 303.11 499.019 301.729 498.309 300.746C497.606 299.763 496.47 299.272 494.901 299.272H491.453V310.287H494.92ZM489.5 297.602H495.311C497.283 297.602 498.813 298.302 499.901 299.701C500.871 300.964 501.356 302.582 501.356 304.555C501.356 306.078 501.069 307.455 500.496 308.686C499.487 310.86 497.752 311.947 495.291 311.947H489.5V297.602ZM174.539 320.602L177.244 332.272L180.487 320.602H182.596L185.838 332.272L188.543 320.602H190.672L186.903 334.947H184.862L181.551 323.053L178.221 334.947H176.18L172.43 320.602H174.539ZM199.1 329.069L196.922 322.731L194.608 329.069H199.1ZM195.907 320.602H198.104L203.309 334.947H201.18L199.725 330.651H194.051L192.498 334.947H190.506L195.907 320.602ZM206.346 330.319C206.392 331.132 206.584 331.793 206.922 332.301C207.567 333.251 208.703 333.727 210.33 333.727C211.06 333.727 211.724 333.623 212.323 333.414C213.481 333.011 214.061 332.288 214.061 331.246C214.061 330.465 213.817 329.908 213.328 329.576C212.834 329.251 212.059 328.968 211.004 328.727L209.061 328.287C207.791 328.001 206.893 327.685 206.366 327.34C205.454 326.741 204.998 325.846 204.998 324.654C204.998 323.365 205.444 322.307 206.336 321.481C207.228 320.654 208.491 320.24 210.125 320.24C211.629 320.24 212.905 320.605 213.953 321.334C215.008 322.057 215.535 323.216 215.535 324.811H213.709C213.612 324.043 213.403 323.453 213.084 323.043C212.492 322.294 211.486 321.92 210.067 321.92C208.921 321.92 208.097 322.161 207.596 322.643C207.095 323.125 206.844 323.684 206.844 324.322C206.844 325.026 207.137 325.54 207.723 325.865C208.107 326.074 208.976 326.334 210.33 326.647L212.342 327.106C213.312 327.327 214.061 327.63 214.588 328.014C215.5 328.684 215.955 329.658 215.955 330.934C215.955 332.522 215.376 333.658 214.217 334.342C213.065 335.026 211.724 335.367 210.194 335.367C208.41 335.367 207.013 334.912 206.004 334C204.995 333.095 204.5 331.868 204.52 330.319H206.346ZM223.983 320.602H226.278L233.524 332.223V320.602H235.369V334.947H233.192L225.838 323.336V334.947H223.983V320.602ZM244.627 320.211C247.16 320.211 249.035 321.025 250.252 322.653C251.203 323.922 251.678 325.546 251.678 327.526C251.678 329.668 251.134 331.448 250.047 332.867C248.771 334.534 246.951 335.367 244.588 335.367C242.381 335.367 240.646 334.638 239.383 333.18C238.257 331.774 237.694 329.996 237.694 327.848C237.694 325.908 238.175 324.248 239.139 322.867C240.376 321.097 242.205 320.211 244.627 320.211ZM244.823 333.629C246.535 333.629 247.772 333.017 248.533 331.793C249.302 330.563 249.686 329.15 249.686 327.555C249.686 325.869 249.243 324.511 248.358 323.483C247.479 322.454 246.274 321.94 244.744 321.94C243.26 321.94 242.049 322.451 241.112 323.473C240.174 324.488 239.705 325.989 239.705 327.975C239.705 329.563 240.106 330.904 240.907 331.998C241.714 333.085 243.019 333.629 244.823 333.629ZM264.442 320.602V322.311H259.608V334.947H257.635V322.311H252.801V320.602H264.442ZM271.629 320.602H281.58V322.36H273.573V326.715H280.614V328.424H273.573V334.947H271.629V320.602ZM289.862 320.211C292.394 320.211 294.269 321.025 295.487 322.653C296.437 323.922 296.912 325.546 296.912 327.526C296.912 329.668 296.369 331.448 295.282 332.867C294.005 334.534 292.186 335.367 289.823 335.367C287.616 335.367 285.88 334.638 284.617 333.18C283.491 331.774 282.928 329.996 282.928 327.848C282.928 325.908 283.41 324.248 284.373 322.867C285.61 321.097 287.44 320.211 289.862 320.211ZM290.057 333.629C291.769 333.629 293.006 333.017 293.768 331.793C294.536 330.563 294.92 329.15 294.92 327.555C294.92 325.869 294.477 324.511 293.592 323.483C292.713 322.454 291.509 321.94 289.979 321.94C288.494 321.94 287.283 322.451 286.346 323.473C285.408 324.488 284.94 325.989 284.94 327.975C284.94 329.563 285.34 330.904 286.141 331.998C286.948 333.085 288.254 333.629 290.057 333.629ZM301.346 320.602V329.469C301.346 330.511 301.541 331.376 301.932 332.067C302.511 333.108 303.488 333.629 304.862 333.629C306.509 333.629 307.629 333.066 308.221 331.94C308.54 331.328 308.699 330.504 308.699 329.469V320.602H310.672V328.658C310.672 330.423 310.435 331.78 309.959 332.731C309.087 334.462 307.44 335.328 305.018 335.328C302.596 335.328 300.952 334.462 300.086 332.731C299.611 331.78 299.373 330.423 299.373 328.658V320.602H301.346ZM313.69 320.602H315.985L323.231 332.223V320.602H325.076V334.947H322.899L315.545 323.336V334.947H313.69V320.602ZM333.651 333.287C334.308 333.287 334.849 333.219 335.272 333.082C336.027 332.828 336.645 332.34 337.127 331.617C337.511 331.038 337.788 330.296 337.957 329.391C338.055 328.85 338.104 328.349 338.104 327.887C338.104 326.11 337.749 324.729 337.039 323.746C336.336 322.763 335.2 322.272 333.631 322.272H330.184V333.287H333.651ZM328.231 320.602H334.041C336.014 320.602 337.544 321.302 338.631 322.701C339.601 323.964 340.086 325.582 340.086 327.555C340.086 329.078 339.8 330.455 339.227 331.686C338.218 333.86 336.483 334.947 334.022 334.947H328.231V320.602Z" fill="black"/>
<g filter="url(#filter0_d)">
<path d="M208.336 223.4H172.128V269.828H135.336V223.4H23.2078V197.12L123.948 65.428H164.536L69.6358 191.28H136.504V150.108H172.128V191.28H208.336V223.4Z" fill="black"/>
</g>
<g filter="url(#filter1_d)">
<path d="M254.448 272.643C238.096 272.643 223.496 268.555 210.648 260.379C197.8 252.008 187.678 239.939 180.28 224.171C172.883 208.208 169.184 189.326 169.184 167.523C169.184 145.72 172.883 126.935 180.28 111.167C187.678 95.2045 197.8 83.1351 210.648 74.9591C223.496 66.5885 238.096 62.4031 254.448 62.4031C270.8 62.4031 285.4 66.5885 298.248 74.9591C311.291 83.1351 321.511 95.2045 328.908 111.167C336.306 126.935 340.004 145.72 340.004 167.523C340.004 189.326 336.306 208.208 328.908 224.171C321.511 239.939 311.291 252.008 298.248 260.379C285.4 268.555 270.8 272.643 254.448 272.643ZM254.448 239.647C269.048 239.647 280.534 233.612 288.904 221.543C297.47 209.474 301.752 191.467 301.752 167.523C301.752 143.579 297.47 125.572 288.904 113.503C280.534 101.434 269.048 95.3991 254.448 95.3991C240.043 95.3991 228.558 101.434 219.992 113.503C211.622 125.572 207.436 143.579 207.436 167.523C207.436 191.467 211.622 209.474 219.992 221.543C228.558 233.612 240.043 239.647 254.448 239.647Z" fill="black"/>
</g>
<g filter="url(#filter2_d)">
<path d="M492.548 223.399H456.34V269.827H419.548V223.399H307.42V197.119L408.16 65.4274H448.748L353.848 191.279H420.716V150.107H456.34V191.279H492.548V223.399Z" fill="black"/>
</g>
<defs>
<filter id="filter0_d" x="15.2078" y="62.428" width="201.128" height="220.4" filterUnits="userSpaceOnUse" color-interpolation-filters="sRGB">
<feFlood flood-opacity="0" result="BackgroundImageFix"/>
<feColorMatrix in="SourceAlpha" type="matrix" values="0 0 0 0 0 0 0 0 0 0 0 0 0 0 0 0 0 0 127 0"/>
<feOffset dy="5"/>
<feGaussianBlur stdDeviation="4"/>
<feColorMatrix type="matrix" values="0 0 0 0 0 0 0 0 0 0 0 0 0 0 0 0 0 0 0.25 0"/>
<feBlend mode="normal" in2="BackgroundImageFix" result="effect1_dropShadow"/>
<feBlend mode="normal" in="SourceGraphic" in2="effect1_dropShadow" result="shape"/>
</filter>
<filter id="filter1_d" x="161.184" y="62.4031" width="178.82" height="210.24" filterUnits="userSpaceOnUse" color-interpolation-filters="sRGB">
<feFlood flood-opacity="0" result="BackgroundImageFix"/>
<feColorMatrix in="SourceAlpha" type="matrix" values="0 0 0 0 0 0 0 0 0 0 0 0 0 0 0 0 0 0 127 0"/>
<feOffset dx="-8"/>
<feColorMatrix type="matrix" values="0 0 0 0 0.952941 0 0 0 0 0.952941 0 0 0 0 0.952941 0 0 0 1 0"/>
<feBlend mode="normal" in2="BackgroundImageFix" result="effect1_dropShadow"/>
<feBlend mode="normal" in="SourceGraphic" in2="effect1_dropShadow" result="shape"/>
</filter>
<filter id="filter2_d" x="301.42" y="65.4274" width="191.128" height="204.4" filterUnits="userSpaceOnUse" color-interpolation-filters="sRGB">
<feFlood flood-opacity="0" result="BackgroundImageFix"/>
<feColorMatrix in="SourceAlpha" type="matrix" values="0 0 0 0 0 0 0 0 0 0 0 0 0 0 0 0 0 0 127 0"/>
<feOffset dx="-6"/>
<feColorMatrix type="matrix" values="0 0 0 0 0.952941 0 0 0 0 0.952941 0 0 0 0 0.952941 0 0 0 1 0"/>
<feBlend mode="normal" in2="BackgroundImageFix" result="effect1_dropShadow"/>
<feBlend mode="normal" in="SourceGraphic" in2="effect1_dropShadow" result="shape"/>
</filter>
</defs>
</svg>
