<?xml version="1.0" encoding="UTF-8" standalone="no"?>
<!DOCTYPE svg PUBLIC "-//W3C//DTD SVG 1.1//EN" "http://www.w3.org/Graphics/SVG/1.1/DTD/svg11.dtd">
<svg width="100%" height="100%" viewBox="0 0 20 20" version="1.1" xmlns="http://www.w3.org/2000/svg" xmlns:xlink="http://www.w3.org/1999/xlink" xml:space="preserve" xmlns:serif="http://www.serif.com/" style="fill-rule:evenodd;clip-rule:evenodd;stroke-linejoin:round;stroke-miterlimit:1.41421;">
    <g transform="matrix(0.0234375,0,0,0.0234375,4,4)">
        <path d="M329.644,264.183C324.968,259.507 324.968,252.493 329.644,247.817L504.986,72.475C509.662,67.799 512,60.785 512,56.11C512,51.434 509.662,44.42 504.986,39.744L472.256,7.014C467.58,2.338 460.566,0 455.89,0C448.877,0 444.201,2.338 439.525,7.014L264.183,182.356C259.507,187.032 252.493,187.032 247.817,182.356L72.475,7.014C67.799,2.338 60.785,0 56.11,0C51.434,0 44.42,2.338 39.744,7.014L7.014,39.744C2.338,44.42 0,51.434 0,56.11C0,60.785 2.338,67.799 7.014,72.475L182.356,247.817C187.032,252.493 187.032,259.507 182.356,264.183L7.014,439.525C2.338,444.201 0,451.215 0,455.89C0,460.566 2.338,467.58 7.014,472.256L39.744,504.986C44.42,509.662 51.434,512 56.11,512C60.785,512 67.799,509.662 72.475,504.986L247.817,329.644C252.493,324.968 259.507,324.968 264.183,329.644L439.525,504.986C444.201,509.662 451.215,512 455.89,512C460.566,512 467.58,509.662 472.256,504.986L504.986,472.256C509.662,467.58 512,460.566 512,455.89C512,451.215 509.662,444.201 504.986,439.525L329.644,264.183Z" style="fill:rgb(169,68,66);fill-rule:nonzero;"/>
    </g>
</svg>
