<?xml version="1.0" encoding="UTF-8" standalone="no"?>
<!DOCTYPE svg PUBLIC "-//W3C//DTD SVG 1.1//EN" "http://www.w3.org/Graphics/SVG/1.1/DTD/svg11.dtd">
<svg width="100%" height="100%" viewBox="0 0 25 25" version="1.1" xmlns="http://www.w3.org/2000/svg" xmlns:xlink="http://www.w3.org/1999/xlink" xml:space="preserve" xmlns:serif="http://www.serif.com/" style="fill-rule:evenodd;clip-rule:evenodd;stroke-linejoin:round;stroke-miterlimit:1.41421;">
    <g transform="matrix(0.0390625,0,0,0.0416684,1.14778,1.41979)">
        <g transform="matrix(1,2.29612e-16,-2.61269e-16,1,33.9823,6.06802)">
            <path d="M282.208,19.67C278.56,16.662 273.728,15.414 269.056,16.278L13.056,64.278C5.472,65.686 0,72.278 0,79.99L0,431.99C0,439.67 5.472,446.294 13.056,447.702L269.056,495.702C270.016,495.894 271.04,495.99 272,495.99C275.68,495.99 279.328,494.71 282.208,492.31C285.888,489.27 288,484.726 288,479.99L288,31.99C288,27.222 285.888,22.71 282.208,19.67ZM256,460.694L32,418.71L32,93.27L256,51.286L256,460.694Z" style="fill:rgb(148,148,148);fill-rule:nonzero;"/>
        </g>
        <g transform="matrix(1,2.29612e-16,-2.61269e-16,1,33.9823,6.07793)">
            <path d="M496,79.99L272,79.99C263.168,79.99 256,87.158 256,95.99C256,104.822 263.168,111.99 272,111.99L480,111.99L480,399.99L272,399.99C263.168,399.99 256,407.158 256,415.99C256,424.822 263.168,431.99 272,431.99L496,431.99C504.832,431.99 512,424.822 512,415.99L512,95.99C512,87.158 504.832,79.99 496,79.99Z" style="fill:rgb(148,148,148);fill-rule:nonzero;"/>
        </g>
        <g transform="matrix(1,2.29612e-16,-2.61269e-16,1,33.9823,6.06802)">
            <path d="M336,143.99L272,143.99C263.168,143.99 256,151.158 256,159.99C256,168.822 263.168,175.99 272,175.99L336,175.99C344.832,175.99 352,168.822 352,159.99C352,151.158 344.832,143.99 336,143.99Z" style="fill:rgb(148,148,148);fill-rule:nonzero;"/>
        </g>
        <g transform="matrix(1,2.29612e-16,-2.61269e-16,1,33.9823,6.06802)">
            <path d="M336,207.99L272,207.99C263.168,207.99 256,215.158 256,223.99C256,232.822 263.168,239.99 272,239.99L336,239.99C344.832,239.99 352,232.822 352,223.99C352,215.158 344.832,207.99 336,207.99Z" style="fill:rgb(148,148,148);fill-rule:nonzero;"/>
        </g>
        <g transform="matrix(1,2.29612e-16,-2.61269e-16,1,33.9823,6.06802)">
            <path d="M336,271.99L272,271.99C263.168,271.99 256,279.158 256,287.99C256,296.822 263.168,303.99 272,303.99L336,303.99C344.832,303.99 352,296.822 352,287.99C352,279.158 344.832,271.99 336,271.99Z" style="fill:rgb(148,148,148);fill-rule:nonzero;"/>
        </g>
        <g transform="matrix(1,2.29612e-16,-2.61269e-16,1,33.9823,6.06802)">
            <path d="M336,335.99L272,335.99C263.168,335.99 256,343.158 256,351.99C256,360.822 263.168,367.99 272,367.99L336,367.99C344.832,367.99 352,360.822 352,351.99C352,343.158 344.832,335.99 336,335.99Z" style="fill:rgb(148,148,148);fill-rule:nonzero;"/>
        </g>
        <g transform="matrix(1,2.29612e-16,-2.61269e-16,1,33.9823,6.06802)">
            <path d="M432,143.99L400,143.99C391.168,143.99 384,151.158 384,159.99C384,168.822 391.168,175.99 400,175.99L432,175.99C440.832,175.99 448,168.822 448,159.99C448,151.158 440.832,143.99 432,143.99Z" style="fill:rgb(148,148,148);fill-rule:nonzero;"/>
        </g>
        <g transform="matrix(1,2.29612e-16,-2.61269e-16,1,33.9823,6.06802)">
            <path d="M432,207.99L400,207.99C391.168,207.99 384,215.158 384,223.99C384,232.822 391.168,239.99 400,239.99L432,239.99C440.832,239.99 448,232.822 448,223.99C448,215.158 440.832,207.99 432,207.99Z" style="fill:rgb(148,148,148);fill-rule:nonzero;"/>
        </g>
        <g transform="matrix(1,2.29612e-16,-2.61269e-16,1,33.9823,6.06802)">
            <path d="M432,271.99L400,271.99C391.168,271.99 384,279.158 384,287.99C384,296.822 391.168,303.99 400,303.99L432,303.99C440.832,303.99 448,296.822 448,287.99C448,279.158 440.832,271.99 432,271.99Z" style="fill:rgb(148,148,148);fill-rule:nonzero;"/>
        </g>
        <g transform="matrix(1,2.29612e-16,-2.61269e-16,1,33.9823,6.06802)">
            <path d="M432,335.99L400,335.99C391.168,335.99 384,343.158 384,351.99C384,360.822 391.168,367.99 400,367.99L432,367.99C440.832,367.99 448,360.822 448,351.99C448,343.158 440.832,335.99 432,335.99Z" style="fill:rgb(148,148,148);fill-rule:nonzero;"/>
        </g>
        <g transform="matrix(1,2.29612e-16,-2.61269e-16,1,33.9823,6.06802)">
            <path d="M220.064,309.462L108.064,181.462C102.176,174.774 92.096,174.134 85.472,179.958C78.816,185.782 78.144,195.894 83.968,202.518L195.968,330.518C199.136,334.134 203.552,335.99 208,335.99C211.744,335.99 215.488,334.678 218.56,332.022C225.216,326.198 225.888,316.118 220.064,309.462Z" style="fill:rgb(148,148,148);fill-rule:nonzero;"/>
        </g>
        <g transform="matrix(1,2.29612e-16,-2.61269e-16,1,33.9823,6.06802)">
            <path d="M217.824,163.382C210.848,157.91 200.8,159.222 195.36,166.166L83.36,310.166C77.952,317.142 79.2,327.222 86.176,332.63C89.12,334.902 92.576,335.99 96,335.99C100.736,335.99 105.472,333.878 108.608,329.846L220.608,185.846C226.048,178.838 224.8,168.79 217.824,163.382Z" style="fill:rgb(148,148,148);fill-rule:nonzero;"/>
        </g>
    </g>
</svg>
