<?xml version="1.0" encoding="UTF-8" standalone="no"?>
<!DOCTYPE svg PUBLIC "-//W3C//DTD SVG 1.1//EN" "http://www.w3.org/Graphics/SVG/1.1/DTD/svg11.dtd">
<svg width="100%" height="100%" viewBox="0 0 25 25" version="1.1" xmlns="http://www.w3.org/2000/svg" xmlns:xlink="http://www.w3.org/1999/xlink" xml:space="preserve" xmlns:serif="http://www.serif.com/" style="fill-rule:evenodd;clip-rule:evenodd;stroke-linejoin:round;stroke-miterlimit:1.41421;">
    <g transform="matrix(0.0390625,0,0,0.0390625,1.70368,1.70368)">
        <g transform="matrix(0.95,0,0,0.75,35.6005,95.4741)">
            <path d="M448,0L64,0C28.703,0 0,28.703 0,64L0,448C0,483.297 28.703,512 64,512L448,512C483.297,512 512,483.297 512,448L512,64C512,28.703 483.297,0 448,0ZM64,42.667L448,42.667C459.766,42.667 469.333,52.234 469.333,64L469.333,215.167L399.083,144.917C390.75,136.589 377.25,136.589 368.917,144.917L218.667,295.167L164.417,240.917C156.083,232.589 142.583,232.589 134.25,240.917L42.667,332.5L42.667,64C42.667,52.234 52.234,42.667 64,42.667ZM448,469.333L64,469.333C52.234,469.333 42.667,459.766 42.667,448L42.667,392.833L149.333,286.167L272.917,409.74C277.089,413.922 282.536,416 288,416C293.464,416 298.911,413.922 303.083,409.75C311.411,401.417 311.411,387.917 303.083,379.583L248.833,325.333L384,190.177L469.333,275.51L469.333,448C469.333,459.766 459.766,469.333 448,469.333Z" style="fill:rgb(148,148,148);fill-rule:nonzero;"/>
        </g>
        <g transform="matrix(1,0,0,0.75,35.6005,95.4741)">
            <path d="M170.667,128C170.667,151.563 151.563,170.667 128,170.667C104.438,170.667 85.333,151.563 85.333,128C85.333,104.438 104.438,85.333 128,85.333C151.563,85.333 170.667,104.438 170.667,128Z" style="fill:rgb(148,148,148);fill-rule:nonzero;"/>
        </g>
    </g>
</svg>
