<?xml version="1.0" encoding="UTF-8" standalone="no"?>
<!DOCTYPE svg PUBLIC "-//W3C//DTD SVG 1.1//EN" "http://www.w3.org/Graphics/SVG/1.1/DTD/svg11.dtd">
<svg width="100%" height="100%" viewBox="0 0 20 20" version="1.1" xmlns="http://www.w3.org/2000/svg" xmlns:xlink="http://www.w3.org/1999/xlink" xml:space="preserve" xmlns:serif="http://www.serif.com/" style="fill-rule:evenodd;clip-rule:evenodd;stroke-linejoin:round;stroke-miterlimit:1.41421;">
    <g id="Forma-1" serif:id="Forma 1" transform="matrix(1,0,0,1,-263.999,-1919)">
        <path d="M276.791,1936.06L276.569,1937.09C275.905,1937.38 275.375,1937.61 274.979,1937.77C274.584,1937.92 274.124,1938 273.601,1938C272.796,1938 272.171,1937.78 271.725,1937.33C271.279,1936.88 271.056,1936.32 271.056,1935.63C271.056,1935.37 271.072,1935.09 271.106,1934.82C271.14,1934.54 271.194,1934.22 271.267,1933.87L272.097,1930.54C272.171,1930.22 272.234,1929.91 272.284,1929.63C272.335,1929.34 272.36,1929.08 272.36,1928.85C272.36,1928.42 272.282,1928.12 272.128,1927.95C271.973,1927.79 271.678,1927.7 271.24,1927.7C271.025,1927.7 270.804,1927.74 270.58,1927.82C270.354,1927.89 270.161,1927.97 269.999,1928.03L270.221,1927C270.765,1926.75 271.284,1926.54 271.782,1926.36C272.279,1926.18 272.749,1926.09 273.193,1926.09C273.992,1926.09 274.608,1926.31 275.041,1926.75C275.473,1927.19 275.69,1927.76 275.69,1928.46C275.69,1928.6 275.675,1928.86 275.645,1929.22C275.615,1929.59 275.56,1929.92 275.479,1930.23L274.652,1933.55C274.584,1933.82 274.523,1934.12 274.47,1934.47C274.416,1934.81 274.39,1935.07 274.39,1935.24C274.39,1935.68 274.476,1935.99 274.65,1936.15C274.825,1936.31 275.126,1936.39 275.554,1936.39C275.755,1936.39 275.984,1936.35 276.238,1936.27C276.491,1936.19 276.676,1936.12 276.791,1936.06ZM277.001,1922.1C277.001,1922.68 276.808,1923.18 276.422,1923.58C276.037,1923.99 275.573,1924.19 275.03,1924.19C274.485,1924.19 274.02,1923.99 273.63,1923.58C273.242,1923.17 273.047,1922.68 273.047,1922.1C273.047,1921.52 273.242,1921.03 273.63,1920.62C274.019,1920.2 274.485,1920 275.03,1920C275.573,1920 276.037,1920.21 276.422,1920.62C276.809,1921.03 277.001,1921.52 277.001,1922.1Z" style="fill:rgb(49,111,143);fill-rule:nonzero;"/>
    </g>
</svg>
