<?xml version="1.0" encoding="UTF-8" standalone="no"?>
<!DOCTYPE svg PUBLIC "-//W3C//DTD SVG 1.1//EN" "http://www.w3.org/Graphics/SVG/1.1/DTD/svg11.dtd">
<svg width="100%" height="100%" viewBox="0 0 25 25" version="1.1" xmlns="http://www.w3.org/2000/svg" xmlns:xlink="http://www.w3.org/1999/xlink" xml:space="preserve" xmlns:serif="http://www.serif.com/" style="fill-rule:evenodd;clip-rule:evenodd;stroke-linejoin:round;stroke-miterlimit:1.41421;">
    <g transform="matrix(0.0351563,0,0,0.0351562,0,3.50005)">
        <path d="M187.507,406.214L161.6,431.942C139.142,454.202 102.618,454.221 80.173,431.942C69.382,421.235 63.456,407.014 63.456,391.898C63.456,376.781 69.389,362.554 80.166,351.846L175.526,257.235C195.29,237.638 232.467,208.781 259.565,235.654C272,248.006 292.083,247.923 304.429,235.494C316.781,223.066 316.704,202.976 304.269,190.637C258.208,144.928 190.131,153.376 130.842,212.205L35.475,306.822C12.595,329.536 0,359.744 0,391.898C0,424.051 12.595,454.253 35.482,476.966C59.027,500.326 89.946,512 120.877,512C151.814,512 182.746,500.326 206.304,476.954L232.23,451.219C244.659,438.88 244.73,418.797 232.378,406.362C220.045,393.939 199.942,393.869 187.507,406.214ZM476.506,38.682C427.034,-10.406 357.862,-13.069 312.064,32.371L279.77,64.429C267.334,76.774 267.258,96.851 279.61,109.286C291.962,121.722 312.045,121.792 324.48,109.446L356.762,77.408C380.486,53.85 411.552,63.616 431.814,83.718C442.618,94.426 448.55,108.653 448.55,123.77C448.55,138.893 442.611,153.12 431.827,163.827L330.086,264.755C283.565,310.912 261.741,289.248 252.429,280.006C239.994,267.661 219.917,267.738 207.565,280.166C195.213,292.595 195.29,312.685 207.725,325.024C229.082,346.221 253.459,356.73 279.014,356.73C310.304,356.73 343.354,340.973 374.778,309.773L476.518,208.845C499.392,186.131 512,155.917 512,123.763C512,91.622 499.392,61.408 476.506,38.682Z" style="fill:rgb(148,148,148);fill-rule:nonzero;"/>
    </g>
</svg>
