<?xml version="1.0" encoding="UTF-8" standalone="no"?>
<!DOCTYPE svg PUBLIC "-//W3C//DTD SVG 1.1//EN" "http://www.w3.org/Graphics/SVG/1.1/DTD/svg11.dtd">
<svg width="100%" height="100%" viewBox="0 0 473 266" version="1.1" xmlns="http://www.w3.org/2000/svg" xmlns:xlink="http://www.w3.org/1999/xlink" xml:space="preserve" xmlns:serif="http://www.serif.com/" style="fill-rule:evenodd;clip-rule:evenodd;stroke-linejoin:round;stroke-miterlimit:1.41421;">
    <g transform="matrix(1,0,0,1,-1026.17,-186.606)">
        <path id="Rectangle-1" serif:id="Rectangle 1" d="M1498,368L1071.99,368L1071.99,188L1498,188L1498,368ZM1072.99,189L1072.99,367L1497,367L1497,189L1072.99,189Z" style="fill:rgb(216,216,216);"/>
        <path id="Rectangle-1-copy" serif:id="Rectangle 1 copy" d="M1498,234L1071.99,234L1071.99,189L1498,189L1498,234ZM1072.99,190L1072.99,233L1497,233L1497,190L1072.99,190Z" style="fill:rgb(216,216,216);"/>
        <path id="Rectangle-1-copy-2" serif:id="Rectangle 1 copy 2" d="M1498,323L1071.99,323L1071.99,278L1498,278L1498,323ZM1072.99,279L1072.99,322L1497,322L1497,279L1072.99,279Z" style="fill:rgb(216,216,216);"/>
        <rect id="Shape-27-copy" serif:id="Shape 27 copy" x="1071" y="189" width="1.796" height="180" style="fill:rgb(204,204,204);"/>
        <rect id="Shape-27" serif:id="Shape 27" x="1071.9" y="367" width="427.102" height="2" style="fill:rgb(204,204,204);"/>
        <g id="Group-11" serif:id="Group 11">
            <rect id="Rectangle-2-copy-5" serif:id="Rectangle 2 copy 5" x="1097" y="233" width="32" height="133" style="fill:rgb(63,171,245);"/>
            <rect id="Rectangle-2-copy-4" serif:id="Rectangle 2 copy 4" x="1097" y="266" width="32" height="100" style="fill:rgb(255,183,77);"/>
            <rect id="Rectangle-2" serif:id="Rectangle 2" x="1097" y="301" width="32" height="66" style="fill:rgb(239,83,79);"/>
        </g>
        <g id="Group-10" serif:id="Group 10">
            <rect id="Rectangle-2-copy-6" serif:id="Rectangle 2 copy 6" x="1165" y="260" width="32" height="107" style="fill:rgb(63,171,245);"/>
            <rect id="Rectangle-2-copy-7" serif:id="Rectangle 2 copy 7" x="1165" y="280.917" width="32" height="86.083" style="fill:rgb(255,183,77);"/>
            <rect id="Rectangle-2-copy-8" serif:id="Rectangle 2 copy 8" x="1165" y="322" width="32" height="45" style="fill:rgb(239,83,79);"/>
        </g>
        <g id="Group-10-copy" serif:id="Group 10 copy">
            <rect id="Rectangle-2-copy-61" serif:id="Rectangle 2 copy 6" x="1232" y="260" width="32" height="107" style="fill:rgb(63,171,245);"/>
            <rect id="Rectangle-2-copy-71" serif:id="Rectangle 2 copy 7" x="1232" y="280.917" width="32" height="86.083" style="fill:rgb(255,183,77);"/>
            <rect id="Rectangle-2-copy-81" serif:id="Rectangle 2 copy 8" x="1232" y="322" width="32" height="45" style="fill:rgb(239,83,79);"/>
        </g>
        <g id="Group-9" serif:id="Group 9">
            <rect id="Rectangle-2-copy-9" serif:id="Rectangle 2 copy 9" x="1300" y="285" width="32" height="82" style="fill:rgb(63,171,245);"/>
            <rect id="Rectangle-2-copy-10" serif:id="Rectangle 2 copy 10" x="1300" y="295" width="32" height="72" style="fill:rgb(255,183,77);"/>
            <rect id="Rectangle-2-copy-11" serif:id="Rectangle 2 copy 11" x="1300" y="333" width="32" height="34" style="fill:rgb(239,83,79);"/>
        </g>
        <g id="Group-9-copy" serif:id="Group 9 copy">
            <rect id="Rectangle-2-copy-91" serif:id="Rectangle 2 copy 9" x="1367" y="264" width="32" height="103" style="fill:rgb(63,171,245);"/>
            <rect id="Rectangle-2-copy-101" serif:id="Rectangle 2 copy 10" x="1367" y="295" width="32" height="72" style="fill:rgb(255,183,77);"/>
            <rect id="Rectangle-2-copy-111" serif:id="Rectangle 2 copy 11" x="1367" y="333" width="32" height="34" style="fill:rgb(239,83,79);"/>
        </g>
        <g id="Group-8" serif:id="Group 8">
            <rect id="Rectangle-2-copy-12" serif:id="Rectangle 2 copy 12" x="1435" y="311" width="32" height="56.575" style="fill:rgb(63,171,245);"/>
            <rect id="Rectangle-2-copy-13" serif:id="Rectangle 2 copy 13" x="1435" y="325.037" width="32" height="42.537" style="fill:rgb(255,183,77);"/>
            <rect id="Rectangle-2-copy-14" serif:id="Rectangle 2 copy 14" x="1435" y="352.537" width="32" height="14.463" style="fill:rgb(239,83,79);"/>
        </g>
        <g id="_100--75--50--25--0-" serif:id="100% 75% 50% 25% 0%" transform="matrix(1,0,0,1,1061,196.799)">
            <text x="-36.353px" y="0px" style="font-family:'ArialMT', 'Arial', sans-serif;font-size:14px;fill:rgb(141,148,152);fill-opacity:0.870588;">1<tspan x="-28.385px -20.416px -12.448px " y="0px 0px 0px ">00%</tspan></text>
            <text x="-28.385px" y="44px" style="font-family:'ArialMT', 'Arial', sans-serif;font-size:14px;fill:rgb(141,148,152);fill-opacity:0.870588;">7<tspan x="-20.416px -12.448px " y="44px 44px ">5%</tspan></text>
            <text x="-28.385px" y="88px" style="font-family:'ArialMT', 'Arial', sans-serif;font-size:14px;fill:rgb(141,148,152);fill-opacity:0.870588;">5<tspan x="-20.416px -12.448px " y="88px 88px ">0%</tspan></text>
            <text x="-28.385px" y="132px" style="font-family:'ArialMT', 'Arial', sans-serif;font-size:14px;fill:rgb(141,148,152);fill-opacity:0.870588;">2<tspan x="-20.416px -12.448px " y="132px 132px ">5%</tspan></text>
            <text x="-20.416px" y="176px" style="font-family:'ArialMT', 'Arial', sans-serif;font-size:14px;fill:rgb(141,148,152);fill-opacity:0.870588;">0<tspan x="-12.448px " y="176px ">%</tspan></text>
        </g>
        <g id="May" transform="matrix(1,0,0,1,1099,387.799)">
            <text x="0px" y="0px" style="font-family:'ArialMT', 'Arial', sans-serif;font-size:14px;fill:rgb(141,148,152);fill-opacity:0.870588;">M<tspan x="11.844px 19.812px " y="0px 0px ">ay</tspan></text>
        </g>
        <g id="June" transform="matrix(1,0,0,1,1167,387.799)">
            <text x="0px" y="0px" style="font-family:'ArialMT', 'Arial', sans-serif;font-size:14px;fill:rgb(141,148,152);fill-opacity:0.870588;">J<tspan x="7.182px 15.15px 23.118px " y="0px 0px 0px ">une</tspan></text>
        </g>
        <g id="July" transform="matrix(1,0,0,1,1236,387.799)">
            <text x="0px" y="0px" style="font-family:'ArialMT', 'Arial', sans-serif;font-size:14px;fill:rgb(141,148,152);fill-opacity:0.870588;">J<tspan x="7.182px 15.15px 18.442px " y="0px 0px 0px ">uly</tspan></text>
        </g>
        <g id="Aug" transform="matrix(1,0,0,1,1302,388.799)">
            <text x="0px" y="0px" style="font-family:'ArialMT', 'Arial', sans-serif;font-size:14px;fill:rgb(141,148,152);fill-opacity:0.870588;">A<tspan x="9.52px 17.488px " y="0px 0px ">ug</tspan></text>
        </g>
        <g id="Sep" transform="matrix(1,0,0,1,1369,388.799)">
            <text x="0px" y="0px" style="font-family:'ArialMT', 'Arial', sans-serif;font-size:14px;fill:rgb(141,148,152);fill-opacity:0.870588;">S<tspan x="9.52px 17.488px " y="0px 0px ">ep</tspan></text>
        </g>
        <g id="Oct" transform="matrix(1,0,0,1,1437,388.799)">
            <text x="0px" y="0px" style="font-family:'ArialMT', 'Arial', sans-serif;font-size:14px;fill:rgb(141,148,152);fill-opacity:0.870588;">O<tspan x="11.072px 18.254px " y="0px 0px ">ct</tspan></text>
        </g>
        <rect id="Rectangle-3-copy-5" serif:id="Rectangle 3 copy 5" x="1044" y="440" width="12" height="12" style="fill:rgb(239,83,79);"/>
        <g id="Infomation-01" serif:id="Infomation 01" transform="matrix(1,0,0,1,1112,451)">
            <text x="-48.477px" y="0px" style="font-family:'ArialMT', 'Arial', sans-serif;font-size:16px;fill:rgb(131,131,131);">Infomation 01</text>
        </g>
        <rect id="Rectangle-3-copy-6" serif:id="Rectangle 3 copy 6" x="1366" y="440" width="12" height="12" style="fill:rgb(63,171,245);"/>
        <g id="Infomation-03" serif:id="Infomation 03" transform="matrix(1,0,0,1,1434,451)">
            <text x="-48.477px" y="0px" style="font-family:'ArialMT', 'Arial', sans-serif;font-size:16px;fill:rgb(131,131,131);">Infomation 03</text>
        </g>
        <rect id="Rectangle-3-copy-7" serif:id="Rectangle 3 copy 7" x="1204" y="440" width="12" height="12" style="fill:rgb(255,183,77);"/>
        <g id="Infomation-02" serif:id="Infomation 02" transform="matrix(1,0,0,1,1272,451)">
            <text x="-48.477px" y="0px" style="font-family:'ArialMT', 'Arial', sans-serif;font-size:16px;fill:rgb(131,131,131);">Infomation 02</text>
        </g>
    </g>
</svg>
