<?xml version="1.0" encoding="UTF-8" standalone="no"?>
<!DOCTYPE svg PUBLIC "-//W3C//DTD SVG 1.1//EN" "http://www.w3.org/Graphics/SVG/1.1/DTD/svg11.dtd">
<svg width="100%" height="100%" viewBox="0 0 20 20" version="1.1" xmlns="http://www.w3.org/2000/svg" xmlns:xlink="http://www.w3.org/1999/xlink" xml:space="preserve" xmlns:serif="http://www.serif.com/" style="fill-rule:evenodd;clip-rule:evenodd;stroke-linejoin:round;stroke-miterlimit:1.41421;">
    <g id="Forma-1-copy-6" serif:id="Forma 1 copy 6" transform="matrix(1,0,0,1,-1430.85,-28.833)">
        <path d="M1446.88,37.431C1446.88,34.536 1444.93,32.201 1442.24,31.547L1442.24,30.892C1442.24,30.145 1441.59,29.492 1440.85,29.492C1440.11,29.492 1439.46,30.145 1439.46,30.892L1439.46,31.547C1436.77,32.201 1434.82,34.536 1434.82,37.431L1434.82,42.569L1432.96,44.437L1432.96,45.372L1448.74,45.372L1448.74,44.437L1446.88,42.569L1446.88,37.431ZM1440.85,48.174C1440.94,48.174 1441.13,48.174 1441.22,48.174C1441.87,48.08 1442.34,47.613 1442.52,47.053C1442.61,46.866 1442.71,46.586 1442.71,46.305L1438.99,46.305C1438.99,47.333 1439.83,48.174 1440.85,48.174Z" style="fill:white;fill-rule:nonzero;"/>
    </g>
</svg>
