<?xml version="1.0" encoding="UTF-8" standalone="no"?>
<!DOCTYPE svg PUBLIC "-//W3C//DTD SVG 1.1//EN" "http://www.w3.org/Graphics/SVG/1.1/DTD/svg11.dtd">
<svg width="100%" height="100%" viewBox="0 0 25 25" version="1.1" xmlns="http://www.w3.org/2000/svg" xmlns:xlink="http://www.w3.org/1999/xlink" xml:space="preserve" xmlns:serif="http://www.serif.com/" style="fill-rule:evenodd;clip-rule:evenodd;stroke-linejoin:round;stroke-miterlimit:1.41421;">
    <g transform="matrix(0.0357143,0,0,0.0390625,3.35715,2.5)">
        <path d="M421.006,294.74C414.183,288.017 399.049,284.457 376.021,284.154C360.432,283.983 341.67,285.355 321.935,288.118C313.098,283.02 303.992,277.471 296.842,270.789C277.61,252.831 261.557,227.903 251.554,200.492C252.206,197.932 252.76,195.682 253.277,193.385C253.277,193.385 264.11,131.856 261.242,111.053C260.848,108.2 260.605,107.372 259.838,105.155L258.897,102.737C255.951,95.941 250.173,88.741 241.116,89.133L235.804,88.964L235.658,88.961C225.558,88.961 217.326,94.127 215.165,101.848C208.597,126.065 215.374,162.294 227.656,209.217L224.512,216.859C215.718,238.298 204.697,259.889 194.973,278.938L193.709,281.416C183.479,301.435 174.197,318.43 165.783,332.827L157.094,337.421C156.462,337.755 141.572,345.63 138.08,347.743C108.452,365.433 88.819,385.515 85.562,401.451C84.525,406.536 85.297,413.043 90.568,416.057L98.971,420.285C102.616,422.111 106.46,423.037 110.398,423.037C131.5,423.037 155.998,396.75 189.746,337.854C228.711,325.169 273.073,314.625 311.953,308.809C341.583,325.493 378.024,337.08 401.025,337.08C405.109,337.08 408.629,336.69 411.49,335.934C415.901,334.766 419.619,332.249 421.886,328.836C426.348,322.121 427.253,312.87 426.042,303.399C425.681,300.589 423.435,297.113 421.006,294.74ZM105.824,407.024C109.671,396.502 124.904,375.702 147.425,357.246C148.841,356.098 152.329,352.829 155.523,349.794C131.971,387.357 116.199,402.329 105.824,407.024ZM239.218,99.843C246.001,99.843 249.859,116.941 250.18,132.97C250.5,149 246.751,160.25 242.101,168.574C238.249,156.25 236.388,136.824 236.388,124.122C236.388,124.122 236.104,99.843 239.218,99.843ZM199.426,318.747C204.151,310.289 209.067,301.368 214.091,291.908C226.336,268.75 234.07,250.629 239.83,235.735C251.286,256.576 265.552,274.295 282.324,288.492C284.416,290.262 286.632,292.042 288.96,293.817C254.855,300.565 225.378,308.772 199.426,318.747ZM414.453,316.826C412.376,318.125 406.426,318.876 402.598,318.876C390.246,318.876 374.963,313.228 353.538,304.043C361.77,303.433 369.318,303.124 376.087,303.124C388.477,303.124 392.147,303.07 404.262,306.161C416.377,309.251 416.53,315.527 414.453,316.826ZM451.717,99.715L380.285,28.284C364.728,12.728 334.001,0 312,0L72,0C50,0 32,18 32,40L32,472.001C32,494 50,512 72,512L440,512C461.999,512 479.999,494 479.999,472.001L479.999,168C480,146 467.273,115.271 451.717,99.715ZM429.09,122.342C430.655,123.908 432.214,125.83 433.729,128L352.001,128L352.001,46.272C354.171,47.787 356.093,49.347 357.658,50.912L429.09,122.342ZM448.001,472.001C448.001,476.337 444.337,480 440.001,480L72,480C67.664,480 64,476.337 64,472.001L64,40C64,35.664 67.665,32.001 72,32.001L312,32.001C314.417,32.001 317.128,32.306 320.001,32.852L320.001,160L447.149,160C447.695,162.874 448.001,165.584 448.001,168L448.001,472.001Z" style="fill:rgb(148,148,148);fill-rule:nonzero;"/>
    </g>
</svg>
