<?xml version="1.0" encoding="UTF-8" standalone="no"?>
<!DOCTYPE svg PUBLIC "-//W3C//DTD SVG 1.1//EN" "http://www.w3.org/Graphics/SVG/1.1/DTD/svg11.dtd">
<svg width="100%" height="100%" viewBox="0 0 25 25" version="1.1" xmlns="http://www.w3.org/2000/svg" xmlns:xlink="http://www.w3.org/1999/xlink" xml:space="preserve" xmlns:serif="http://www.serif.com/" style="fill-rule:evenodd;clip-rule:evenodd;stroke-linejoin:round;stroke-miterlimit:1.41421;">
    <g transform="matrix(0.0390625,0,0,0.0416684,5.87956,0.78133)">
        <g transform="matrix(1,0,0,1,-91.4286,19.7211)">
            <path d="M282.208,19.67C278.56,16.662 273.728,15.414 269.056,16.278L13.056,64.278C5.472,65.686 0,72.278 0,79.99L0,431.99C0,439.67 5.472,446.294 13.056,447.702L269.056,495.702C270.016,495.894 271.04,495.99 272,495.99C275.68,495.99 279.328,494.71 282.208,492.31C285.888,489.27 288,484.726 288,479.99L288,31.99C288,27.222 285.888,22.71 282.208,19.67ZM256,460.694L32,418.71L32,93.27L256,51.286L256,460.694Z" style="fill:rgb(148,148,148);fill-rule:nonzero;"/>
        </g>
        <g transform="matrix(1,0,0,1,-91.4286,19.731)">
            <path d="M496,79.99L272,79.99C263.168,79.99 256,87.158 256,95.99C256,104.822 263.168,111.99 272,111.99L480,111.99L480,399.99L272,399.99C263.168,399.99 256,407.158 256,415.99C256,424.822 263.168,431.99 272,431.99L496,431.99C504.832,431.99 512,424.822 512,415.99L512,95.99C512,87.158 504.832,79.99 496,79.99Z" style="fill:rgb(148,148,148);fill-rule:nonzero;"/>
        </g>
        <g transform="matrix(1,0,0,1,-91.4286,19.7211)">
            <path d="M432,335.99L272,335.99C263.168,335.99 256,343.158 256,351.99C256,360.822 263.168,367.99 272,367.99L432,367.99C440.832,367.99 448,360.822 448,351.99C448,343.158 440.832,335.99 432,335.99Z" style="fill:rgb(148,148,148);fill-rule:nonzero;"/>
        </g>
        <g transform="matrix(1,0,0,1,-91.4286,19.7211)">
            <path d="M112,175.99C103.168,175.99 96,183.158 96,191.99L96,351.99C96,360.822 103.168,367.99 112,367.99C120.832,367.99 128,360.822 128,351.99L128,191.99C128,183.158 120.832,175.99 112,175.99Z" style="fill:rgb(148,148,148);fill-rule:nonzero;"/>
        </g>
        <g transform="matrix(1,0,0,1,-91.4286,19.7211)">
            <path d="M160,175.99L112,175.99C103.168,175.99 96,183.158 96,191.99C96,200.822 103.168,207.99 112,207.99L160,207.99C177.632,207.99 192,222.358 192,239.99C192,257.622 177.632,271.99 160,271.99L112,271.99C103.168,271.99 96,279.158 96,287.99C96,296.822 103.168,303.99 112,303.99L160,303.99C195.296,303.99 224,275.286 224,239.99C224,204.694 195.296,175.99 160,175.99Z" style="fill:rgb(148,148,148);fill-rule:nonzero;"/>
        </g>
        <g transform="matrix(1,0,0,1,-91.4286,19.7211)">
            <path d="M368,143.99C323.872,143.99 288,179.894 288,223.99C288,268.086 323.872,303.99 368,303.99C412.128,303.99 448,268.086 448,223.99C448,179.894 412.128,143.99 368,143.99ZM368,271.99C341.536,271.99 320,250.454 320,223.99C320,197.526 341.536,175.99 368,175.99C394.464,175.99 416,197.526 416,223.99C416,250.454 394.464,271.99 368,271.99Z" style="fill:rgb(148,148,148);fill-rule:nonzero;"/>
        </g>
        <g transform="matrix(1,0,0,1,-91.4286,19.7211)">
            <path d="M432,207.99L384,207.99L384,159.99C384,151.158 376.832,143.99 368,143.99C359.168,143.99 352,151.158 352,159.99L352,223.99C352,232.822 359.168,239.99 368,239.99L432,239.99C440.832,239.99 448,232.822 448,223.99C448,215.158 440.832,207.99 432,207.99Z" style="fill:rgb(148,148,148);fill-rule:nonzero;"/>
        </g>
    </g>
</svg>
