<?xml version="1.0" encoding="UTF-8" standalone="no"?>
<!DOCTYPE svg PUBLIC "-//W3C//DTD SVG 1.1//EN" "http://www.w3.org/Graphics/SVG/1.1/DTD/svg11.dtd">
<svg width="100%" height="100%" viewBox="0 0 25 25" version="1.1" xmlns="http://www.w3.org/2000/svg" xmlns:xlink="http://www.w3.org/1999/xlink" xml:space="preserve" xmlns:serif="http://www.serif.com/" style="fill-rule:evenodd;clip-rule:evenodd;stroke-linejoin:round;stroke-miterlimit:1.41421;">
    <g id="Forma-1-copy" serif:id="Forma 1 copy" transform="matrix(1,0,0,1,-156.65,-155.5)">
        <path d="M177.743,166.639L175.906,166.331C175.773,165.781 175.578,165.255 175.325,164.765L176.5,163.297C176.751,162.987 176.739,162.54 176.476,162.241L175.745,161.412C175.48,161.113 175.041,161.05 174.706,161.263L173.135,162.258C172.444,161.771 171.661,161.412 170.817,161.204L170.51,159.344C170.445,158.95 170.107,158.661 169.71,158.661L168.609,158.661C168.212,158.661 167.873,158.95 167.81,159.344L167.501,161.205C166.803,161.377 166.148,161.655 165.551,162.021L164.057,160.947C163.735,160.715 163.293,160.751 163.012,161.034L162.234,161.818C161.954,162.101 161.918,162.546 162.148,162.87L163.217,164.378C162.857,164.975 162.584,165.63 162.413,166.327L160.556,166.639C160.166,166.704 159.878,167.045 159.878,167.445L159.878,168.554C159.878,168.953 160.166,169.294 160.556,169.359L162.413,169.672C162.554,170.245 162.757,170.793 163.028,171.301L161.858,172.761C161.608,173.071 161.619,173.518 161.882,173.817L162.613,174.645C162.877,174.945 163.317,175.007 163.652,174.794L165.245,173.786C165.919,174.251 166.682,174.592 167.501,174.794L167.81,176.655C167.873,177.049 168.212,177.338 168.609,177.338L169.71,177.338C170.107,177.338 170.445,177.049 170.51,176.655L170.818,174.794C171.507,174.624 172.153,174.352 172.745,173.992L174.301,175.111C174.623,175.344 175.065,175.307 175.346,175.024L176.124,174.241C176.404,173.958 176.442,173.513 176.21,173.188L175.102,171.624C175.463,171.025 175.737,170.368 175.907,169.668L177.744,169.359C178.135,169.294 178.422,168.953 178.422,168.554L178.422,167.445C178.421,167.045 178.135,166.704 177.743,166.639ZM169.179,171.501C167.259,171.501 165.702,169.933 165.702,167.999C165.702,166.066 167.259,164.498 169.179,164.498C171.098,164.498 172.656,166.066 172.656,167.999C172.656,169.933 171.098,171.501 169.179,171.501Z" style="fill:rgb(91,23,121);fill-rule:nonzero;"/>
    </g>
</svg>
