<?xml version="1.0" encoding="UTF-8" standalone="no"?>
<!DOCTYPE svg PUBLIC "-//W3C//DTD SVG 1.1//EN" "http://www.w3.org/Graphics/SVG/1.1/DTD/svg11.dtd">
<svg width="100%" height="100%" viewBox="0 0 30 60" version="1.1" xmlns="http://www.w3.org/2000/svg" xmlns:xlink="http://www.w3.org/1999/xlink" xml:space="preserve" xmlns:serif="http://www.serif.com/" style="fill-rule:evenodd;clip-rule:evenodd;stroke-linejoin:round;stroke-miterlimit:1.41421;">
    <g>
        <g id="Forma-1" serif:id="Forma 1" transform="matrix(1,2.44929e-16,-2.44929e-16,1,5,4)">
            <path d="M18.03,4.59L15.1,1.65C14.46,1.01 13.2,0.49 12.3,0.49L2.45,0.49C1.54,0.49 0.81,1.23 0.81,2.13L0.81,19.87C0.81,20.77 1.54,21.51 2.45,21.51L17.55,21.51C18.45,21.51 19.19,20.77 19.19,19.87L19.19,7.39C19.19,6.48 18.67,5.22 18.03,4.59ZM17.1,5.51C17.17,5.58 17.23,5.66 17.29,5.75L13.94,5.75L13.94,2.39C14.03,2.45 14.11,2.52 14.17,2.58L17.1,5.51ZM17.88,19.87C17.88,20.04 17.73,20.19 17.55,20.19L2.45,20.19C2.27,20.19 2.12,20.04 2.12,19.87L2.12,2.13C2.12,1.96 2.27,1.81 2.45,1.81L12.3,1.81C12.4,1.81 12.51,1.82 12.63,1.84L12.63,7.06L17.85,7.06C17.87,7.18 17.88,7.29 17.88,7.39L17.88,19.87Z" style="fill:rgb(131,131,131);fill-rule:nonzero;"/>
        </g>
        <g id="Rounded-Rectangle-1" serif:id="Rounded Rectangle 1" transform="matrix(1,2.44929e-16,-2.44929e-16,1,5,4)">
            <path d="M5.48,4.25L9.51,4.25C9.88,4.25 10.18,4.55 10.18,4.93C10.18,5.3 9.88,5.6 9.51,5.6L5.48,5.6C5.11,5.6 4.81,5.3 4.81,4.93C4.81,4.55 5.11,4.25 5.48,4.25Z" style="fill:rgb(131,131,131);fill-rule:nonzero;"/>
        </g>
        <g id="Rounded-Rectangle-2" serif:id="Rounded Rectangle 2" transform="matrix(1,2.44929e-16,-2.44929e-16,1,5,4)">
            <path d="M5.2,9.01L15.62,9.01C16,9.01 16.3,9.31 16.3,9.69C16.3,10.06 16,10.36 15.62,10.36L5.2,10.36C4.82,10.36 4.52,10.06 4.52,9.69C4.52,9.31 4.82,9.01 5.2,9.01Z" style="fill:rgb(131,131,131);fill-rule:nonzero;"/>
        </g>
        <g id="Rounded-Rectangle-2-copy" serif:id="Rounded Rectangle 2 copy" transform="matrix(1,2.44929e-16,-2.44929e-16,1,5.15171,4)">
            <path d="M5.2,12.66L15.62,12.66C16,12.66 16.3,12.97 16.3,13.34C16.3,13.71 16,14.02 15.62,14.02L5.2,14.02C4.82,14.02 4.52,13.71 4.52,13.34C4.52,12.97 4.82,12.66 5.2,12.66Z" style="fill:rgb(131,131,131);fill-rule:nonzero;"/>
        </g>
        <g id="Rounded-Rectangle-2-copy-2" serif:id="Rounded Rectangle 2 copy 2" transform="matrix(1,2.44929e-16,-2.44929e-16,1,5,4)">
            <path d="M5.2,16.31L15.62,16.31C16,16.31 16.3,16.62 16.3,16.99C16.3,17.37 16,17.67 15.62,17.67L5.2,17.67C4.82,17.67 4.52,17.37 4.52,16.99C4.52,16.62 4.82,16.31 5.2,16.31Z" style="fill:rgb(131,131,131);fill-rule:nonzero;"/>
        </g>
    </g>
    <g transform="matrix(1,0,0,1,-0.379267,0.493047)">
        <g id="Rounded-Rectangle-2-copy1" serif:id="Rounded Rectangle 2 copy" transform="matrix(1,2.44929e-16,-2.44929e-16,1,5.15171,34.1138)">
            <path d="M5.2,12.66L15.62,12.66C16,12.66 16.3,12.97 16.3,13.34C16.3,13.71 16,14.02 15.62,14.02L5.2,14.02C4.82,14.02 4.52,13.71 4.52,13.34C4.52,12.97 4.82,12.66 5.2,12.66Z" style="fill:rgb(92,24,114);fill-rule:nonzero;"/>
        </g>
        <g id="Forma-11" serif:id="Forma 1" transform="matrix(1,2.44929e-16,-2.44929e-16,1,5.37927,33.507)">
            <path d="M18.03,4.59L15.1,1.65C14.46,1.01 13.2,0.49 12.3,0.49L2.45,0.49C1.54,0.49 0.81,1.23 0.81,2.13L0.81,19.87C0.81,20.77 1.54,21.51 2.45,21.51L17.55,21.51C18.45,21.51 19.19,20.77 19.19,19.87L19.19,7.39C19.19,6.48 18.67,5.22 18.03,4.59ZM17.1,5.51C17.17,5.58 17.23,5.66 17.29,5.75L13.94,5.75L13.94,2.39C14.03,2.45 14.11,2.52 14.17,2.58L17.1,5.51ZM17.88,19.87C17.88,20.04 17.73,20.19 17.55,20.19L2.45,20.19C2.27,20.19 2.12,20.04 2.12,19.87L2.12,2.13C2.12,1.96 2.27,1.81 2.45,1.81L12.3,1.81C12.4,1.81 12.51,1.82 12.63,1.84L12.63,7.06L17.85,7.06C17.87,7.18 17.88,7.29 17.88,7.39L17.88,19.87Z" style="fill:rgb(92,24,114);fill-rule:nonzero;"/>
        </g>
        <g id="Rounded-Rectangle-11" serif:id="Rounded Rectangle 1" transform="matrix(1,2.44929e-16,-2.44929e-16,1,5,33.8104)">
            <path d="M5.48,4.25L9.51,4.25C9.88,4.25 10.18,4.55 10.18,4.93C10.18,5.3 9.88,5.6 9.51,5.6L5.48,5.6C5.11,5.6 4.81,5.3 4.81,4.93C4.81,4.55 5.11,4.25 5.48,4.25Z" style="fill:rgb(92,24,114);fill-rule:nonzero;"/>
        </g>
        <g id="Rounded-Rectangle-21" serif:id="Rounded Rectangle 2" transform="matrix(1,2.44929e-16,-2.44929e-16,1,5,33.8104)">
            <path d="M5.2,9.01L15.62,9.01C16,9.01 16.3,9.31 16.3,9.69C16.3,10.06 16,10.36 15.62,10.36L5.2,10.36C4.82,10.36 4.52,10.06 4.52,9.69C4.52,9.31 4.82,9.01 5.2,9.01Z" style="fill:rgb(92,24,114);fill-rule:nonzero;"/>
        </g>
        <g id="Rounded-Rectangle-2-copy-21" serif:id="Rounded Rectangle 2 copy 2" transform="matrix(1,2.44929e-16,-2.44929e-16,1,5,33.8104)">
            <path d="M5.2,16.31L15.62,16.31C16,16.31 16.3,16.62 16.3,16.99C16.3,17.37 16,17.67 15.62,17.67L5.2,17.67C4.82,17.67 4.52,17.37 4.52,16.99C4.52,16.62 4.82,16.31 5.2,16.31Z" style="fill:rgb(92,24,114);fill-rule:nonzero;"/>
        </g>
    </g>
</svg>
