<?xml version="1.0" encoding="UTF-8" standalone="no"?>
<!DOCTYPE svg PUBLIC "-//W3C//DTD SVG 1.1//EN" "http://www.w3.org/Graphics/SVG/1.1/DTD/svg11.dtd">
<svg width="100%" height="100%" viewBox="0 0 25 25" version="1.1" xmlns="http://www.w3.org/2000/svg" xmlns:xlink="http://www.w3.org/1999/xlink" xml:space="preserve" xmlns:serif="http://www.serif.com/" style="fill-rule:evenodd;clip-rule:evenodd;stroke-linejoin:round;stroke-miterlimit:1.41421;">
    <g id="_x33_56._Play" transform="matrix(0.0351562,0,0,0.0351566,3.5,3.4999)">
        <path d="M477.658,128.021C406.978,5.6 250.431,-36.347 128.02,34.345C5.598,105.016 -36.351,261.556 34.342,383.972C105.012,506.394 261.554,548.347 383.967,477.661C506.39,406.967 548.359,250.434 477.658,128.021ZM358.378,433.314C260.455,489.87 135.21,456.31 78.671,358.368C22.119,260.446 55.69,135.202 153.616,78.674C251.545,22.122 376.783,55.679 433.326,153.617C489.87,251.554 456.308,376.772 358.378,433.314ZM348.142,245.596L214.115,167.429C201.901,160.298 192.05,165.999 192.118,180.126L192.805,335.281C192.866,349.405 202.839,355.155 215.088,348.08L348.09,271.291C360.326,264.229 360.352,252.727 348.142,245.596Z" style="fill:rgb(148,148,148);fill-rule:nonzero;"/>
    </g>
</svg>
