<?xml version="1.0" encoding="UTF-8" standalone="no"?>
<!DOCTYPE svg PUBLIC "-//W3C//DTD SVG 1.1//EN" "http://www.w3.org/Graphics/SVG/1.1/DTD/svg11.dtd">
<svg width="100%" height="100%" viewBox="0 0 36 36" version="1.1" xmlns="http://www.w3.org/2000/svg" xmlns:xlink="http://www.w3.org/1999/xlink" xml:space="preserve" xmlns:serif="http://www.serif.com/" style="fill-rule:evenodd;clip-rule:evenodd;stroke-linejoin:round;stroke-miterlimit:1.41421;">
    <g transform="matrix(0.925402,0,0,0.925402,-618.125,-154.267)">
        <path d="M687.613,169.946L687.822,169.95L688.03,169.956L688.238,169.966L688.444,169.977L688.65,169.992L688.856,170.009L689.06,170.028L689.264,170.05L689.467,170.075L689.67,170.102L689.871,170.131L690.072,170.163L690.272,170.198L690.471,170.235L690.669,170.274L690.866,170.316L691.063,170.36L691.258,170.406L691.453,170.455L691.647,170.506L691.839,170.56L692.031,170.616L692.222,170.674L692.412,170.734L692.6,170.797L692.788,170.862L692.975,170.929L693.16,170.998L693.345,171.07L693.528,171.143L693.711,171.219L693.892,171.297L694.072,171.377L694.251,171.46L694.429,171.544L694.605,171.63L694.781,171.719L694.955,171.81L695.128,171.902L695.299,171.997L695.47,172.093L695.639,172.192L695.806,172.293L695.973,172.395L696.138,172.5L696.302,172.606L696.464,172.714L696.625,172.825L696.785,172.937L696.943,173.051L697.1,173.166L697.255,173.284L697.409,173.404L697.561,173.525L697.712,173.648L697.861,173.773L698.009,173.899L698.156,174.027L698.3,174.157L698.443,174.289L698.585,174.423L698.725,174.558L698.863,174.694L699,174.833L699.135,174.973L699.269,175.114L699.4,175.257L699.53,175.402L699.658,175.548L699.785,175.696L699.91,175.846L700.033,175.997L700.154,176.149L700.274,176.303L700.391,176.458L700.507,176.615L700.621,176.773L700.733,176.933L700.843,177.094L700.952,177.256L701.058,177.42L701.163,177.585L701.265,177.751L701.366,177.919L701.464,178.088L701.561,178.259L701.656,178.43L701.748,178.603L701.839,178.777L701.927,178.952L702.014,179.129L702.098,179.307L702.18,179.486L702.261,179.666L702.339,179.847L702.414,180.029L702.488,180.213L702.56,180.397L702.629,180.583L702.696,180.77L702.761,180.957L702.824,181.146L702.884,181.336L702.942,181.527L702.998,181.718L703.051,181.911L703.102,182.105L703.151,182.299L703.198,182.495L703.242,182.691L703.284,182.889L703.323,183.087L703.36,183.286L703.394,183.486L703.426,183.687L703.456,183.888L703.483,184.09L703.507,184.294L703.529,184.497L703.549,184.702L703.566,184.907L703.58,185.113L703.592,185.32L703.601,185.528L703.608,185.736L703.612,185.944L703.613,186.154L703.612,186.363L703.608,186.572L703.601,186.78L703.592,186.987L703.58,187.194L703.566,187.4L703.549,187.605L703.529,187.81L703.507,188.014L703.483,188.217L703.456,188.419L703.426,188.621L703.394,188.822L703.36,189.021L703.323,189.221L703.284,189.419L703.242,189.616L703.198,189.812L703.151,190.008L703.102,190.203L703.051,190.396L702.998,190.589L702.942,190.781L702.884,190.972L702.824,191.161L702.761,191.35L702.696,191.538L702.629,191.725L702.56,191.91L702.488,192.095L702.414,192.278L702.339,192.461L702.261,192.642L702.18,192.822L702.098,193.001L702.014,193.178L701.927,193.355L701.839,193.53L701.748,193.704L701.656,193.877L701.561,194.049L701.464,194.219L701.366,194.388L701.265,194.556L701.163,194.723L701.058,194.888L700.952,195.051L700.843,195.214L700.733,195.375L700.621,195.534L700.507,195.693L700.391,195.849L700.274,196.005L700.154,196.159L700.033,196.311L699.91,196.462L699.785,196.611L699.658,196.759L699.53,196.905L699.4,197.05L699.269,197.193L699.135,197.335L699,197.475L698.863,197.613L698.725,197.75L698.585,197.885L698.443,198.018L698.3,198.15L698.156,198.28L698.009,198.408L697.861,198.535L697.712,198.66L697.561,198.783L697.409,198.904L697.255,199.023L697.1,199.141L696.943,199.257L696.785,199.371L696.625,199.483L696.464,199.593L696.302,199.701L696.138,199.808L695.973,199.912L695.806,200.015L695.639,200.115L695.47,200.214L695.299,200.311L695.128,200.405L694.955,200.498L694.781,200.589L694.605,200.677L694.429,200.763L694.251,200.848L694.072,200.93L693.892,201.01L693.711,201.088L693.528,201.164L693.345,201.238L693.16,201.309L692.975,201.379L692.788,201.446L692.6,201.511L692.412,201.573L692.222,201.634L692.031,201.692L691.839,201.748L691.647,201.801L691.453,201.852L691.258,201.901L691.063,201.948L690.866,201.992L690.669,202.033L690.471,202.073L690.272,202.11L690.072,202.144L689.871,202.176L689.67,202.206L689.467,202.233L689.264,202.257L689.06,202.279L688.856,202.299L688.65,202.316L688.444,202.33L688.238,202.342L688.03,202.351L687.822,202.358L687.613,202.362L687.404,202.363L687.195,202.362L686.986,202.358L686.778,202.351L686.57,202.342L686.364,202.33L686.158,202.316L685.952,202.299L685.748,202.279L685.544,202.257L685.341,202.233L685.138,202.206L684.937,202.176L684.736,202.144L684.536,202.11L684.337,202.073L684.139,202.033L683.942,201.992L683.745,201.948L683.55,201.901L683.355,201.852L683.161,201.801L682.969,201.748L682.777,201.692L682.586,201.634L682.396,201.573L682.208,201.511L682.02,201.446L681.833,201.379L681.648,201.309L681.463,201.238L681.28,201.164L681.097,201.088L680.916,201.01L680.736,200.93L680.557,200.848L680.379,200.763L680.203,200.677L680.027,200.589L679.853,200.498L679.68,200.405L679.509,200.311L679.338,200.214L679.169,200.115L679.002,200.015L678.835,199.912L678.67,199.808L678.506,199.701L678.344,199.593L678.183,199.483L678.023,199.371L677.865,199.257L677.708,199.141L677.553,199.023L677.399,198.904L677.247,198.783L677.096,198.66L676.947,198.535L676.799,198.408L676.652,198.28L676.508,198.15L676.365,198.018L676.223,197.885L676.083,197.75L675.945,197.613L675.808,197.475L675.673,197.335L675.539,197.193L675.408,197.05L675.278,196.905L675.149,196.759L675.023,196.611L674.898,196.462L674.775,196.311L674.654,196.159L674.534,196.005L674.417,195.849L674.301,195.693L674.187,195.534L674.075,195.375L673.965,195.214L673.856,195.051L673.75,194.888L673.645,194.723L673.543,194.556L673.442,194.388L673.344,194.219L673.247,194.049L673.152,193.877L673.06,193.704L672.969,193.53L672.881,193.355L672.794,193.178L672.71,193.001L672.628,192.822L672.547,192.642L672.469,192.461L672.394,192.278L672.32,192.095L672.248,191.91L672.179,191.725L672.112,191.538L672.047,191.35L671.984,191.161L671.924,190.972L671.866,190.781L671.81,190.589L671.757,190.396L671.705,190.203L671.657,190.008L671.61,189.812L671.566,189.616L671.524,189.419L671.485,189.221L671.448,189.021L671.414,188.822L671.382,188.621L671.352,188.419L671.325,188.217L671.301,188.014L671.279,187.81L671.259,187.605L671.242,187.4L671.228,187.194L671.216,186.987L671.207,186.78L671.2,186.572L671.196,186.363L671.195,186.154L671.196,185.944L671.2,185.736L671.207,185.528L671.216,185.32L671.228,185.113L671.242,184.907L671.259,184.702L671.279,184.497L671.301,184.294L671.325,184.09L671.352,183.888L671.382,183.687L671.414,183.486L671.448,183.286L671.485,183.087L671.524,182.889L671.566,182.691L671.61,182.495L671.657,182.299L671.705,182.105L671.757,181.911L671.81,181.718L671.866,181.527L671.924,181.336L671.984,181.146L672.047,180.957L672.112,180.77L672.179,180.583L672.248,180.397L672.32,180.213L672.394,180.029L672.469,179.847L672.547,179.666L672.628,179.486L672.71,179.307L672.794,179.129L672.881,178.952L672.969,178.777L673.06,178.603L673.152,178.43L673.247,178.259L673.344,178.088L673.442,177.919L673.543,177.751L673.645,177.585L673.75,177.42L673.856,177.256L673.965,177.094L674.075,176.933L674.187,176.773L674.301,176.615L674.417,176.458L674.534,176.303L674.654,176.149L674.775,175.997L674.898,175.846L675.023,175.696L675.149,175.548L675.278,175.402L675.408,175.257L675.539,175.114L675.673,174.973L675.808,174.833L675.945,174.694L676.083,174.558L676.223,174.423L676.365,174.289L676.508,174.157L676.652,174.027L676.799,173.899L676.947,173.773L677.096,173.648L677.247,173.525L677.399,173.404L677.553,173.284L677.708,173.166L677.865,173.051L678.023,172.937L678.183,172.825L678.344,172.714L678.506,172.606L678.67,172.5L678.835,172.395L679.002,172.293L679.169,172.192L679.338,172.093L679.509,171.997L679.68,171.902L679.853,171.81L680.027,171.719L680.203,171.63L680.379,171.544L680.557,171.46L680.736,171.377L680.916,171.297L681.097,171.219L681.28,171.143L681.463,171.07L681.648,170.998L681.833,170.929L682.02,170.862L682.208,170.797L682.396,170.734L682.586,170.674L682.777,170.616L682.969,170.56L683.161,170.506L683.355,170.455L683.55,170.406L683.745,170.36L683.942,170.316L684.139,170.274L684.337,170.235L684.536,170.198L684.736,170.163L684.937,170.131L685.138,170.102L685.341,170.075L685.544,170.05L685.748,170.028L685.952,170.009L686.158,169.992L686.364,169.977L686.57,169.966L686.778,169.956L686.986,169.95L687.195,169.946L687.404,169.945L687.613,169.946ZM687.277,176.429L687.15,176.432L687.024,176.436L686.899,176.441L686.774,176.448L686.65,176.457L686.527,176.467L686.404,176.479L686.281,176.492L686.159,176.507L686.038,176.523L685.917,176.541L685.797,176.56L685.678,176.58L685.559,176.603L685.44,176.626L685.322,176.651L685.205,176.677L685.088,176.705L684.972,176.734L684.857,176.765L684.742,176.797L684.627,176.83L684.513,176.865L684.4,176.901L684.287,176.938L684.175,176.977L684.064,177.017L683.953,177.058L683.843,177.101L683.733,177.145L683.624,177.19L683.516,177.237L683.409,177.285L683.302,177.334L683.195,177.384L683.09,177.436L682.985,177.489L682.88,177.543L682.777,177.599L682.674,177.656L682.572,177.714L682.47,177.773L682.37,177.833L682.27,177.895L682.17,177.957L682.072,178.021L681.974,178.086L681.878,178.153L681.782,178.22L681.686,178.289L681.592,178.358L681.499,178.429L681.406,178.501L681.314,178.574L681.223,178.648L681.133,178.723L681.044,178.8L680.956,178.877L680.869,178.955L680.783,179.035L680.697,179.115L680.613,179.197L680.529,179.279L680.447,179.363L680.365,179.447L680.285,179.532L680.206,179.619L680.127,179.706L680.05,179.794L679.974,179.883L679.899,179.973L679.824,180.064L679.751,180.156L679.679,180.248L679.609,180.342L679.539,180.436L679.47,180.531L679.403,180.627L679.337,180.724L679.272,180.822L679.208,180.92L679.145,181.019L679.083,181.119L679.023,181.22L678.964,181.321L678.906,181.424L678.849,181.526L678.794,181.63L678.739,181.734L678.686,181.839L678.635,181.945L678.584,182.051L678.535,182.158L678.487,182.266L678.44,182.374L678.395,182.483L678.351,182.593L678.308,182.703L678.267,182.814L678.227,182.925L678.188,183.037L678.151,183.15L678.115,183.263L678.08,183.377L678.047,183.491L678.015,183.606L677.984,183.722L677.955,183.838L677.928,183.955L677.901,184.072L677.876,184.19L677.853,184.308L677.831,184.427L677.81,184.547L677.791,184.667L677.773,184.788L677.757,184.909L677.742,185.031L677.729,185.153L677.717,185.276L677.707,185.4L677.699,185.524L677.691,185.649L677.686,185.774L677.682,185.9L677.679,186.027L677.679,186.154L677.679,186.281L677.682,186.407L677.686,186.533L677.691,186.659L677.699,186.783L677.707,186.908L677.717,187.031L677.729,187.154L677.742,187.277L677.757,187.398L677.773,187.52L677.791,187.64L677.81,187.761L677.831,187.88L677.853,187.999L677.876,188.118L677.901,188.235L677.928,188.353L677.955,188.469L677.984,188.586L678.015,188.701L678.047,188.816L678.08,188.931L678.115,189.044L678.151,189.158L678.188,189.27L678.227,189.382L678.267,189.494L678.308,189.605L678.351,189.715L678.395,189.824L678.44,189.933L678.487,190.042L678.535,190.149L678.584,190.256L678.635,190.363L678.686,190.468L678.739,190.573L678.794,190.677L678.849,190.781L678.906,190.884L678.964,190.986L679.023,191.088L679.083,191.188L679.145,191.288L679.208,191.387L679.272,191.486L679.337,191.583L679.403,191.68L679.47,191.776L679.539,191.871L679.609,191.966L679.679,192.059L679.751,192.152L679.824,192.243L679.899,192.334L679.974,192.424L680.05,192.513L680.127,192.602L680.206,192.689L680.285,192.775L680.365,192.861L680.447,192.945L680.529,193.028L680.613,193.111L680.697,193.192L680.783,193.273L680.869,193.352L680.956,193.43L681.044,193.508L681.133,193.584L681.223,193.659L681.314,193.733L681.406,193.806L681.499,193.878L681.592,193.949L681.686,194.019L681.782,194.087L681.878,194.155L681.974,194.221L682.072,194.286L682.17,194.35L682.27,194.413L682.37,194.474L682.47,194.535L682.572,194.594L682.674,194.652L682.777,194.709L682.88,194.764L682.985,194.818L683.09,194.871L683.195,194.923L683.302,194.974L683.409,195.023L683.516,195.071L683.624,195.117L683.733,195.163L683.843,195.207L683.953,195.249L684.064,195.291L684.175,195.331L684.287,195.369L684.4,195.407L684.513,195.443L684.627,195.478L684.742,195.511L684.857,195.543L684.972,195.573L685.088,195.602L685.205,195.63L685.322,195.657L685.44,195.681L685.559,195.705L685.678,195.727L685.797,195.748L685.917,195.767L686.038,195.784L686.159,195.801L686.281,195.815L686.404,195.829L686.527,195.84L686.65,195.851L686.774,195.859L686.899,195.866L687.024,195.872L687.15,195.876L687.277,195.878L687.404,195.879L687.531,195.878L687.658,195.876L687.784,195.872L687.909,195.866L688.034,195.859L688.158,195.851L688.281,195.84L688.404,195.829L688.527,195.815L688.649,195.801L688.77,195.784L688.891,195.767L689.011,195.748L689.13,195.727L689.249,195.705L689.368,195.681L689.486,195.657L689.603,195.63L689.72,195.602L689.836,195.573L689.951,195.543L690.066,195.511L690.181,195.478L690.295,195.443L690.408,195.407L690.521,195.369L690.633,195.331L690.744,195.291L690.855,195.249L690.965,195.207L691.075,195.163L691.184,195.117L691.292,195.071L691.399,195.023L691.506,194.974L691.613,194.923L691.718,194.871L691.823,194.818L691.928,194.764L692.031,194.709L692.134,194.652L692.236,194.594L692.338,194.535L692.438,194.474L692.538,194.413L692.638,194.35L692.736,194.286L692.834,194.221L692.93,194.155L693.026,194.087L693.121,194.019L693.216,193.949L693.309,193.878L693.402,193.806L693.494,193.733L693.585,193.659L693.675,193.584L693.764,193.508L693.852,193.43L693.939,193.352L694.025,193.273L694.111,193.192L694.195,193.111L694.279,193.028L694.361,192.945L694.442,192.861L694.523,192.775L694.602,192.689L694.681,192.602L694.758,192.513L694.834,192.424L694.909,192.334L694.984,192.243L695.057,192.152L695.129,192.059L695.199,191.966L695.269,191.871L695.338,191.776L695.405,191.68L695.471,191.583L695.536,191.486L695.6,191.387L695.663,191.288L695.725,191.188L695.785,191.088L695.844,190.986L695.902,190.884L695.959,190.781L696.014,190.677L696.069,190.573L696.122,190.468L696.173,190.363L696.224,190.256L696.273,190.149L696.321,190.042L696.368,189.933L696.413,189.824L696.457,189.715L696.5,189.605L696.541,189.494L696.581,189.382L696.62,189.27L696.657,189.158L696.693,189.044L696.728,188.931L696.761,188.816L696.793,188.701L696.824,188.586L696.853,188.469L696.88,188.353L696.907,188.235L696.932,188.118L696.955,187.999L696.977,187.88L696.998,187.761L697.017,187.64L697.035,187.52L697.051,187.398L697.066,187.277L697.079,187.154L697.091,187.031L697.101,186.908L697.109,186.783L697.117,186.659L697.122,186.533L697.126,186.407L697.129,186.281L697.129,186.154L697.129,186.027L697.126,185.9L697.122,185.774L697.117,185.649L697.109,185.524L697.101,185.4L697.091,185.276L697.079,185.153L697.066,185.031L697.051,184.909L697.035,184.788L697.017,184.667L696.998,184.547L696.977,184.427L696.955,184.308L696.932,184.19L696.907,184.072L696.88,183.955L696.853,183.838L696.824,183.722L696.793,183.606L696.761,183.491L696.728,183.377L696.693,183.263L696.657,183.15L696.62,183.037L696.581,182.925L696.541,182.814L696.5,182.703L696.457,182.593L696.413,182.483L696.368,182.374L696.321,182.266L696.273,182.158L696.224,182.051L696.173,181.945L696.122,181.839L696.069,181.734L696.014,181.63L695.959,181.526L695.902,181.424L695.844,181.321L695.785,181.22L695.725,181.119L695.663,181.019L695.6,180.92L695.536,180.822L695.471,180.724L695.405,180.627L695.338,180.531L695.269,180.436L695.199,180.342L695.129,180.248L695.057,180.156L694.984,180.064L694.909,179.973L694.834,179.883L694.758,179.794L694.681,179.706L694.602,179.619L694.523,179.532L694.442,179.447L694.361,179.362L694.279,179.279L694.195,179.197L694.111,179.115L694.025,179.035L693.939,178.955L693.852,178.877L693.764,178.8L693.675,178.723L693.585,178.648L693.494,178.574L693.402,178.501L693.309,178.429L693.216,178.358L693.121,178.289L693.026,178.22L692.93,178.153L692.834,178.086L692.736,178.021L692.638,177.957L692.538,177.895L692.438,177.833L692.338,177.773L692.236,177.714L692.134,177.656L692.031,177.599L691.928,177.543L691.823,177.489L691.718,177.436L691.613,177.384L691.506,177.334L691.399,177.285L691.292,177.237L691.184,177.19L691.075,177.145L690.965,177.101L690.855,177.058L690.744,177.017L690.633,176.977L690.521,176.938L690.408,176.901L690.295,176.865L690.181,176.83L690.066,176.797L689.951,176.765L689.836,176.734L689.72,176.705L689.603,176.677L689.486,176.651L689.368,176.626L689.249,176.603L689.13,176.58L689.011,176.56L688.891,176.541L688.77,176.523L688.649,176.507L688.527,176.492L688.404,176.479L688.281,176.467L688.158,176.457L688.034,176.448L687.909,176.441L687.784,176.436L687.658,176.432L687.531,176.429L687.404,176.428L687.277,176.429Z" style="fill:white;"/>
    </g>
</svg>
